<?xml version="1.0" encoding="utf-8"?>
<!-- Generator: Adobe Illustrator 23.0.1, SVG Export Plug-In . SVG Version: 6.00 Build 0)  -->
<svg version="1.1" id="Layer_1" xmlns="http://www.w3.org/2000/svg" xmlns:xlink="http://www.w3.org/1999/xlink" x="0px" y="0px"
	 viewBox="0 0 192 37" style="enable-background:new 0 0 192 37;" xml:space="preserve">
<style type="text/css">
	.st0{fill:#FFFFFF;}
	.st1{fill:#F79F1A;}
	.st2{fill:#059BBF;}
	.st3{opacity:0.15;fill:#202121;enable-background:new    ;}
	.st4{fill:#92DBEF;}
	.st5{fill:#263B80;}
	.st6{fill:#232C65;}
	.st7{fill:#139AD6;}
	.st8{fill:#FFB600;}
	.st9{fill:#F7981D;}
	.st10{fill:#FF8500;}
	.st11{fill:#FF5050;}
	.st12{fill:#E52836;}
	.st13{fill:#CB2026;}
	.st14{fill:#DCE5E5;}
</style>
<g>
	<g>
		<path class="st0" d="M53.5,33.9c0,1.7-1.4,3.1-3.1,3.1H3.5c-1.7,0-3.1-1.4-3.1-3.1V3.5c0-1.7,1.4-3.1,3.1-3.1h46.8
			c1.7,0,3.1,1.4,3.1,3.1V33.9L53.5,33.9z"/>
		<path class="st1" d="M12.2,18.9l-1.2-6c-0.2-0.8-0.8-1.1-1.6-1.1H3.6l-0.1,0.3C8,13.2,10.9,15.8,12.2,18.9z"/>
		<g>
			<polygon class="st2" points="25.4,11.9 21.7,11.9 19.4,25.5 23.1,25.5 			"/>
			<path class="st2" d="M14.4,25.5l5.8-13.5h-3.9l-3.6,9.2l-0.4-1.4c-0.7-1.7-2.7-4.1-5.1-5.6l3.3,11.3L14.4,25.5z"/>
			<path class="st2" d="M36,21c0-1.5-1-2.7-3.1-3.7c-1.3-0.6-2.1-1-2.1-1.7c0-0.6,0.7-1.2,2.1-1.2c1.2,0,2.1,0.2,2.8,0.5l0.3,0.2
				l0.5-2.9c-0.7-0.3-1.9-0.6-3.3-0.6c-3.6,0-6.2,1.8-6.2,4.5c0,1.9,1.8,3,3.2,3.7c1.4,0.7,1.9,1.1,1.9,1.7c0,0.9-1.1,1.3-2.2,1.3
				c-1.5,0-2.3-0.2-3.5-0.7l-0.5-0.2l-0.5,3c0.9,0.4,2.5,0.7,4.1,0.7C33.4,25.7,35.9,23.9,36,21z"/>
			<path class="st2" d="M40.3,23.4c0.4,0,4.2,0,4.7,0c0.1,0.5,0.4,2,0.4,2h3.4l-3-13.5h-2.9c-0.9,0-1.5,0.2-1.9,1.1l-5.5,12.4h3.9
				C39.6,25.5,40.2,23.8,40.3,23.4z M42.9,16.9c0,0,0.3-0.8,0.5-1.3l0.3,1.2c0,0,0.7,3.2,0.9,3.9h-3.1
				C41.7,19.9,42.9,16.9,42.9,16.9z"/>
			<path class="st2" d="M50.4,0.4H3.5c-1.7,0-3.1,1.4-3.1,3.1v3.3h53.1V3.5C53.5,1.8,52.1,0.4,50.4,0.4z"/>
		</g>
		<path class="st1" d="M50.4,37H3.5c-1.7,0-3.1-1.4-3.1-3.1v-3.3h53.1v3.3C53.5,35.6,52.1,37,50.4,37z"/>
		<path class="st3" d="M2.6,33.9V3.5c0-1.7,1.4-3.1,3.1-3.1H3.5c-1.7,0-3.1,1.4-3.1,3.1v30.4c0,1.7,1.4,3.1,3.1,3.1h2.2
			C4,37,2.6,35.6,2.6,33.9z"/>
	</g>
	<g>
		<path class="st4" d="M119.5,33.6c0,1.7-1.4,3.2-3.2,3.2h-47c-1.7,0-3.2-1.4-3.2-3.2V3.2c0-1.7,1.4-3.2,3.2-3.2h47
			c1.7,0,3.2,1.4,3.2,3.2V33.6L119.5,33.6z"/>
		<path class="st3" d="M68.4,33.6V3.2c0-1.7,1.4-3.2,3.2-3.2h-2.2c-1.7,0-3.2,1.4-3.2,3.2v30.5c0,1.7,1.4,3.2,3.2,3.2h2.2
			C69.9,36.8,68.4,35.4,68.4,33.6z"/>
		<path class="st5" d="M100.8,7.2c-1.2-1.3-3.3-2-6.3-2h-8.3c-0.5,0-1,0.5-1.2,1l-3.3,21.9c0,0.5,0.3,0.8,0.7,0.8h5.2l1.3-8.2V21
			c0.2-0.5,0.7-1,1.2-1h2.5c4.8,0,8.5-2,9.7-7.5V12c-0.2,0-0.2,0,0,0C102.3,9.9,102,8.5,100.8,7.2"/>
		<path class="st6" d="M102.2,12.5V12c0,0,0,0,0,0c-0.3-0.2-0.6-0.4-0.8-0.4c-1-0.4-2-0.5-2.5-0.5l0,0h-2.4c0,0,0,0,0,0h-5.1
			c-0.9,0-1.1,0.7-1.2,1l-1.3,8.6v0.2V21c0.2-0.5,0.7-1,1.2-1h2.5C97.3,20,101,18,102.2,12.5z"/>
		<path class="st7" d="M103.8,14.1c-0.4-1-1-1.7-1.6-2.1c0,0,0,0,0,0v0.5C101,18,97.3,20,92.5,20H90c-0.5,0-1,0.5-1.2,1v-0.1
			c0,0,0,0.1-0.1,0.1l-0.9,5.8l-0.3,2.1h0l-0.4,2.3c0,0.3,0.2,0.7,0.7,0.7h4.2c0.8,0,1.1-0.7,1.2-1l0-0.2v0l0.8-5
			c0,0,0.1-1.2,1.2-1.2h0.4c4.2,0,7.5-1.7,8.3-6.7C104.2,16.5,104.2,15.2,103.8,14.1z"/>
	</g>
	<g>
		<path class="st8" d="M192,18.5c0,10.1-8.1,18.3-18.3,18.3c-10.1,0-18.3-8.2-18.3-18.3l0,0c0-10.1,8.1-18.3,18.2-18.3
			C183.9,0.2,192,8.5,192,18.5L192,18.5z"/>
		<path class="st9" d="M173.7,0.2c10.1,0,18.3,8.2,18.3,18.3l0,0c0,10.1-8.1,18.3-18.3,18.3c-10.1,0-18.3-8.2-18.3-18.3"/>
		<path class="st10" d="M173.7,0.2c10.1,0,18.3,8.2,18.3,18.3l0,0c0,10.1-8.1,18.3-18.3,18.3"/>
		<path class="st11" d="M149,0.2c-10,0.1-18.1,8.2-18.1,18.3s8.1,18.3,18.3,18.3c4.8,0,9-1.8,12.3-4.8l0,0l0,0
			c0.7-0.6,1.3-1.3,1.8-1.9h-3.8c-0.5-0.6-1-1.3-1.4-1.8h6.5c0.4-0.6,0.8-1.3,1.1-1.9h-8.6c-0.3-0.6-0.6-1.3-0.8-1.9h10.1
			c0.6-1.8,1-3.8,1-5.8c0-1.4-0.2-2.6-0.4-3.9h-11.2c0.1-0.7,0.3-1.3,0.5-1.9h10.1c-0.2-0.7-0.5-1.4-0.8-1.9h-8.5
			c0.3-0.7,0.7-1.3,1.1-1.9h6.5c-0.4-0.7-0.9-1.4-1.5-1.9h-3.6c0.6-0.7,1.2-1.3,1.8-1.8c-3.2-3-7.6-4.8-12.3-4.8
			C149.1,0.2,149.1,0.2,149,0.2z"/>
		<path class="st12" d="M130.9,18.5c0,10.1,8.1,18.3,18.3,18.3c4.8,0,9-1.8,12.3-4.8l0,0l0,0c0.7-0.6,1.3-1.3,1.8-1.9h-3.8
			c-0.5-0.6-1-1.3-1.4-1.8h6.5c0.4-0.6,0.8-1.3,1.1-1.9h-8.6c-0.3-0.6-0.6-1.3-0.8-1.9h10.1c0.6-1.8,1-3.8,1-5.8
			c0-1.4-0.2-2.6-0.4-3.9h-11.2c0.1-0.7,0.3-1.3,0.5-1.9h10.1c-0.2-0.7-0.5-1.4-0.8-1.9h-8.5c0.3-0.7,0.7-1.3,1.1-1.9h6.5
			c-0.4-0.7-0.9-1.4-1.5-1.9h-3.6c0.6-0.7,1.2-1.3,1.8-1.8c-3.2-3-7.6-4.8-12.3-4.8H149"/>
		<path class="st13" d="M149.2,36.9c4.8,0,9-1.8,12.3-4.8l0,0l0,0c0.7-0.6,1.3-1.3,1.8-1.9h-3.8c-0.5-0.6-1-1.3-1.4-1.8h6.5
			c0.4-0.6,0.8-1.3,1.1-1.9h-8.6c-0.3-0.6-0.6-1.3-0.8-1.9h10.1c0.6-1.8,1-3.8,1-5.8c0-1.4-0.2-2.6-0.4-3.9h-11.2
			c0.1-0.7,0.3-1.3,0.5-1.9h10.1c-0.2-0.7-0.5-1.4-0.8-1.9h-8.5c0.3-0.7,0.7-1.3,1.1-1.9h6.5c-0.4-0.7-0.9-1.4-1.5-1.9h-3.6
			c0.6-0.7,1.2-1.3,1.8-1.8c-3.2-3-7.6-4.8-12.3-4.8H149"/>
		<g>
			<path class="st0" d="M155.7,23.2l0.3-1.6c-0.1,0-0.3,0.1-0.5,0.1c-0.7,0-0.8-0.4-0.7-0.6l0.6-3.4h1.1l0.3-1.8h-1l0.2-1.2h-1.9
				c0,0-1.2,6.4-1.2,7.2c0,1.2,0.7,1.6,1.6,1.6C155.1,23.5,155.5,23.3,155.7,23.2z"/>
			<path class="st0" d="M156.4,20.1c0,2.7,1.8,3.4,3.4,3.4c1.5,0,2-0.3,2-0.3l0.4-1.8c0,0-1.1,0.5-2,0.5c-2.1,0-1.7-1.6-1.7-1.6h4
				c0,0,0.3-1.3,0.3-1.7c0-1.3-0.7-2.8-2.8-2.8C157.9,15.5,156.4,17.7,156.4,20.1z M159.8,17.3c1.1,0,0.9,1.3,0.9,1.4h-2.1
				C158.5,18.5,158.7,17.3,159.8,17.3z"/>
			<path class="st0" d="M172.1,23.2l0.4-2.1c0,0-1,0.5-1.6,0.5c-1.4,0-1.9-1.1-1.9-2.2c0-2.3,1.2-3.6,2.5-3.6c1,0,1.7,0.6,1.7,0.6
				l0.3-2c0,0-1.2-0.5-2.2-0.5c-2.2,0-4.5,1.9-4.5,5.6c0,2.4,1.2,4.1,3.5,4.1C171.1,23.5,172.1,23.2,172.1,23.2z"/>
			<path class="st0" d="M145.1,15.5c-1.4,0-2.3,0.4-2.3,0.4l-0.3,1.6c0,0,0.9-0.4,2.1-0.4c0.7,0,1.3,0.1,1.3,0.7
				c0,0.4-0.1,0.5-0.1,0.5s-0.6,0-0.9,0c-1.6,0-3.5,0.7-3.5,2.9c0,1.7,1.2,2.1,1.8,2.1c1.4,0,1.9-0.9,2-0.9l-0.1,0.8h1.7l0.8-5.3
				C147.7,15.6,145.7,15.5,145.1,15.5z M145.5,19.9c0,0.3-0.2,1.8-1.4,1.8c-0.6,0-0.8-0.5-0.8-0.8c0-0.5,0.3-1.2,1.7-1.2
				C145.4,19.9,145.5,19.9,145.5,19.9z"/>
			<path class="st0" d="M149.5,23.4c0.5,0,2.9,0.1,2.9-2.5c0-2.4-2.3-1.9-2.3-2.9c0-0.5,0.4-0.7,1.1-0.7c0.3,0,1.4,0.1,1.4,0.1
				l0.3-1.7c0,0-0.7-0.2-1.8-0.2c-1.5,0-2.9,0.6-2.9,2.5c0,2.2,2.4,2,2.4,2.9c0,0.6-0.7,0.7-1.2,0.7c-0.9,0-1.7-0.3-1.7-0.3
				l-0.3,1.7C147.4,23.2,147.9,23.4,149.5,23.4z"/>
			<path class="st0" d="M188.2,14l-0.4,2.6c0,0-0.8-1-1.8-1c-1.7,0-3.3,2.1-3.3,4.7c0,1.6,0.8,3.2,2.4,3.2c1.2,0,1.8-0.8,1.8-0.8
				l-0.1,0.7h1.9l1.5-9.3L188.2,14z M187.3,19.1c0,1.1-0.5,2.4-1.6,2.4c-0.7,0-1.1-0.6-1.1-1.6c0-1.6,0.7-2.5,1.6-2.5
				C187,17.5,187.3,18,187.3,19.1z"/>
			<path class="st0" d="M134.5,23.3l1.2-7l0.2,7h1.4l2.5-7l-1.1,7h2l1.6-9.3h-3.2l-1.9,5.7L137,14h-2.8l-1.6,9.3H134.5z"/>
			<path class="st0" d="M164.6,23.3c0.6-3.2,0.7-5.8,2-5.3c0.2-1.3,0.5-1.7,0.7-2.2c0,0-0.1,0-0.4,0c-0.9,0-1.6,1.2-1.6,1.2l0.2-1.1
				h-1.8l-1.3,7.6L164.6,23.3L164.6,23.3z"/>
			<path class="st0" d="M176.6,15.5c-1.4,0-2.3,0.4-2.3,0.4l-0.3,1.6c0,0,0.9-0.4,2.1-0.4c0.7,0,1.3,0.1,1.3,0.7
				c0,0.4-0.1,0.5-0.1,0.5s-0.6,0-0.9,0c-1.6,0-3.5,0.7-3.5,2.9c0,1.7,1.2,2.1,1.8,2.1c1.4,0,1.9-0.9,2-0.9l-0.1,0.8h1.7l0.8-5.3
				C179.3,15.6,177.3,15.5,176.6,15.5z M177.1,19.9c0,0.3-0.2,1.8-1.4,1.8c-0.6,0-0.8-0.5-0.8-0.8c0-0.5,0.3-1.2,1.7-1.2
				C177,19.9,177,19.9,177.1,19.9z"/>
			<path class="st0" d="M180.8,23.3c0.6-3.2,0.7-5.8,2-5.3c0.2-1.3,0.5-1.7,0.7-2.2c0,0-0.1,0-0.4,0c-0.9,0-1.6,1.2-1.6,1.2l0.2-1.1
				H180l-1.3,7.6L180.8,23.3L180.8,23.3z"/>
		</g>
		<g>
			<path class="st14" d="M152.7,21.8c0,1.2,0.7,1.6,1.6,1.6c0.7,0,1.3-0.2,1.5-0.3l0.3-1.6c-0.1,0-0.3,0.1-0.5,0.1
				c-0.7,0-0.8-0.4-0.7-0.6l0.6-3.4h1.1l0.3-1.8h-1l0.2-1.2"/>
			<path class="st14" d="M157.4,20.1c0,2.7,0.9,3.4,2.4,3.4c1.5,0,2-0.3,2-0.3l0.4-1.8c0,0-1.1,0.5-2,0.5c-2.1,0-1.7-1.6-1.7-1.6h4
				c0,0,0.3-1.3,0.3-1.7c0-1.3-0.7-2.8-2.8-2.8C157.9,15.5,157.4,17.7,157.4,20.1z M159.8,17.3c1.1,0,1.3,1.3,1.3,1.4h-2.5
				C158.5,18.5,158.7,17.3,159.8,17.3z"/>
			<path class="st14" d="M172.1,23.2l0.4-2.1c0,0-1,0.5-1.6,0.5c-1.4,0-1.9-1.1-1.9-2.2c0-2.3,1.2-3.6,2.5-3.6c1,0,1.7,0.6,1.7,0.6
				l0.3-2c0,0-1.2-0.5-2.2-0.5c-2.2,0-3.5,1.9-3.5,5.6c0,2.4,0.2,4.1,2.5,4.1C171.1,23.5,172.1,23.2,172.1,23.2z"/>
			<path class="st14" d="M142.5,17.7c0,0,0.9-0.4,2.1-0.4c0.7,0,1.3,0.1,1.3,0.7c0,0.4-0.1,0.5-0.1,0.5s-0.6,0-0.9,0
				c-1.6,0-3.5,0.7-3.5,2.9c0,1.7,1.2,2.1,1.8,2.1c1.4,0,1.9-0.9,2-0.9l-0.1,0.8h1.7l0.8-5.3c0-2.2-1.9-2.3-2.7-2.3 M146.4,19.9
				c0,0.3-1.2,1.8-2.3,1.8c-0.6,0-0.8-0.5-0.8-0.8c0-0.5,0.3-1.2,1.7-1.2C145.4,19.9,146.4,19.9,146.4,19.9z"/>
			<path class="st14" d="M147.4,23.2c0,0,0.6,0.2,2.2,0.2c0.5,0,2.9,0.1,2.9-2.5c0-2.4-2.3-1.9-2.3-2.9c0-0.5,0.4-0.7,1.1-0.7
				c0.3,0,1.4,0.1,1.4,0.1l0.3-1.7c0,0-0.7-0.2-1.8-0.2c-1.5,0-1.9,0.6-1.9,2.5c0,2.2,1.5,2,1.5,2.9c0,0.6-0.7,0.7-1.2,0.7"/>
			<path class="st14" d="M187.8,16.6c0,0-0.8-1-1.8-1c-1.7,0-2.3,2.1-2.3,4.7c0,1.6-0.2,3.2,1.5,3.2c1.2,0,1.8-0.8,1.8-0.8l-0.1,0.7
				h1.9l1.5-9.3 M187.7,19.1c0,1.1-0.9,2.4-1.9,2.4c-0.7,0-1.1-0.6-1.1-1.6c0-1.6,0.7-2.5,1.6-2.5C187,17.5,187.7,18,187.7,19.1z"/>
			<path class="st14" d="M134.5,23.3l1.2-7l0.2,7h1.4l2.5-7l-1.1,7h2l1.6-9.3h-2.4l-2.7,5.7L137,14H136l-3.3,9.3H134.5z"/>
			<path class="st14" d="M162.5,23.3h2c0.6-3.2,0.7-5.8,2-5.3c0.2-1.3,0.5-1.7,0.7-2.2c0,0-0.1,0-0.4,0c-0.9,0-1.6,1.2-1.6,1.2
				l0.2-1.1"/>
			<path class="st14" d="M174,17.7c0,0,0.9-0.4,2.1-0.4c0.7,0,1.3,0.1,1.3,0.7c0,0.4-0.1,0.5-0.1,0.5s-0.6,0-0.9,0
				c-1.6,0-3.5,0.7-3.5,2.9c0,1.7,1.2,2.1,1.8,2.1c1.4,0,1.9-0.9,2-0.9l-0.1,0.8h1.7l0.8-5.3c0-2.2-1.9-2.3-2.7-2.3 M177.9,19.9
				c0,0.3-1.2,1.8-2.3,1.8c-0.6,0-0.8-0.5-0.8-0.8c0-0.5,0.3-1.2,1.7-1.2C177,19.9,177.9,19.9,177.9,19.9z"/>
			<path class="st14" d="M178.8,23.3h2c0.6-3.2,0.7-5.8,2-5.3c0.2-1.3,0.5-1.7,0.7-2.2c0,0-0.1,0-0.4,0c-0.9,0-1.6,1.2-1.6,1.2
				l0.2-1.1"/>
		</g>
	</g>
</g>
</svg>
