<?xml version="1.0" encoding="utf-8"?>
<!-- Generator: Adobe Illustrator 23.0.1, SVG Export Plug-In . SVG Version: 6.00 Build 0)  -->
<svg version="1.1" id="Layer_1" xmlns="http://www.w3.org/2000/svg" xmlns:xlink="http://www.w3.org/1999/xlink" x="0px" y="0px"
	 viewBox="0 0 20 20" style="enable-background:new 0 0 20 20;" xml:space="preserve">
<style type="text/css">
	.st0{fill:#5DE289;}
	.st1{fill:#95C7EF;}
	.st2{fill:#1795CC;}
	.st3{fill:#2189B7;}
	.st4{fill:#097A51;}
	.st5{fill:#EB565B;}
	.st6{fill:#157A60;}
	.st7{fill:#0F7C4D;}
	.st8{fill:#068758;}
	.st9{fill:#D34AF4;}
	.st10{fill:#F4F8FC;}
</style>
<g>
	<g>
		<path class="st0" d="M14,15.5c0,0.6-0.5,1.2-1.2,1.2l0,0H3.7c-0.6,0-1.2-0.5-1.2-1.2l0,0V1.2C2.5,0.5,3.1,0,3.7,0h9.1
			C13.5,0,14,0.5,14,1.2l0,0V15.5z"/>
		<path class="st1" d="M4.1,15.5V1.2C4.1,0.5,4.6,0,5.3,0H3.7C3.1,0,2.5,0.5,2.5,1.2v14.4c0,0.6,0.5,1.2,1.2,1.2l0,0h1.6
			C4.6,16.7,4.1,16.2,4.1,15.5L4.1,15.5z"/>
		<path class="st2" d="M8.3,8c1.9,0,3.5,1.6,3.5,3.5s-1.6,3.5-3.5,3.5s-3.5-1.6-3.5-3.5c0,0,0,0,0,0C4.8,9.6,6.3,8,8.3,8L8.3,8z"/>
		<path class="st3" d="M8.3,1.7c1.2,0,2.2,1,2.2,2.2s-1,2.2-2.2,2.2s-2.2-1-2.2-2.2c0,0,0,0,0,0C6.1,2.7,7.1,1.7,8.3,1.7z"/>
		<g>
			<path class="st4" d="M12.2,0.9c0.3,0,0.6,0.3,0.6,0.6c0,0.3-0.3,0.6-0.6,0.6c-0.3,0-0.6-0.3-0.6-0.6C11.6,1.2,11.9,0.9,12.2,0.9z
				"/>
			<path class="st5" d="M8.3,3.1c0.4,0,0.8,0.3,0.8,0.8S8.7,4.7,8.3,4.7c-0.4,0-0.8-0.3-0.8-0.8C7.5,3.5,7.9,3.1,8.3,3.1L8.3,3.1z"
				/>
			<path class="st6" d="M12.2,14.6c0.3,0,0.6,0.3,0.6,0.6c0,0.3-0.3,0.6-0.6,0.6c-0.3,0-0.6-0.3-0.6-0.6l0,0
				C11.6,14.9,11.9,14.6,12.2,14.6z"/>
			<path class="st7" d="M4.4,14.6c0.3,0,0.6,0.3,0.6,0.6c0,0.3-0.3,0.6-0.6,0.6c-0.3,0-0.6-0.3-0.6-0.6l0,0
				C3.8,14.9,4,14.6,4.4,14.6z"/>
			<path class="st5" d="M8.3,10.1c0.8,0,1.4,0.6,1.4,1.4c0,0.8-0.6,1.4-1.4,1.4c-0.8,0-1.4-0.6-1.4-1.4c0,0,0,0,0,0
				C6.9,10.8,7.5,10.1,8.3,10.1C8.3,10.1,8.3,10.1,8.3,10.1L8.3,10.1z"/>
			<path class="st8" d="M4.4,0.9C4.7,0.9,5,1.2,5,1.5S4.7,2.1,4.4,2.1S3.8,1.8,3.8,1.5C3.8,1.2,4,0.9,4.4,0.9z"/>
		</g>
		<path class="st9" d="M16.5,8.1c0-0.1,0-0.1,0-0.2V3.1c0-0.4-0.3-0.7-0.7-0.7c0,0-0.1,0-0.1,0l-3.3,0.7c-0.3,0.1-0.5,0.3-0.5,0.6
			v2.4c-0.5-0.3-1.1-0.1-1.3,0.4c-0.3,0.5-0.1,1.1,0.4,1.3c0.5,0.3,1.1,0.1,1.3-0.4c0.1-0.2,0.2-0.5,0.1-0.7V5L16,4.2v3.1
			c-0.5-0.3-1.1-0.1-1.3,0.4c-0.3,0.5-0.1,1.1,0.4,1.3c0.5,0.3,1.1,0.1,1.3-0.4c0.1-0.1,0.1-0.3,0.1-0.5C16.5,8.2,16.5,8.1,16.5,8.1
			L16.5,8.1z"/>
		<path class="st10" d="M3.6,11.1c-0.1,0-0.2-0.1-0.2-0.2V6.4c0-0.1,0.1-0.2,0.2-0.2c0.1,0,0.2,0.1,0.2,0.2v4.4
			C3.9,11,3.7,11.1,3.6,11.1z"/>
		<path class="st10" d="M3.6,5.8c-0.1,0-0.2-0.1-0.2-0.2V4c0-0.1,0.1-0.2,0.2-0.2c0.1,0,0.2,0.1,0.2,0.2v1.6
			C3.8,5.7,3.7,5.8,3.6,5.8z"/>
		<path class="st10" d="M3.6,3.3c-0.1,0-0.2-0.1-0.2-0.2V2.9c0-0.1,0.1-0.2,0.2-0.2c0.1,0,0.2,0.1,0.2,0.2v0.2
			C3.8,3.2,3.7,3.3,3.6,3.3z"/>
	</g>
	<g>
		<path class="st5" d="M4.1,17.7c0-0.1,0-0.2-0.1-0.2c-0.1,0-0.1,0-0.2,0c-0.2,0-0.3,0-0.5,0.1s-0.2,0.1-0.2,0.2
			c0,0.1,0,0.1,0.1,0.2c0.1,0,0.2,0.1,0.4,0.2c0.2,0.1,0.3,0.1,0.4,0.2c0.1,0.1,0.1,0.1,0.1,0.2S4.1,18.8,4,18.9
			C3.9,19,3.7,19,3.6,19.1c-0.2,0.1-0.3,0.1-0.4,0.1c-0.1,0-0.2,0-0.2,0c0,0-0.1-0.1-0.1-0.1c0,0,0-0.1,0-0.1c0,0,0-0.1,0-0.1
			c0,0,0,0,0,0c0.1,0,0.2,0,0.3,0c0.2,0,0.3,0,0.5-0.1C3.9,18.8,4,18.7,4,18.6c0,0,0-0.1-0.1-0.1c-0.1,0-0.2-0.1-0.4-0.1
			c-0.3-0.1-0.4-0.2-0.5-0.2C3,18,2.9,18,2.9,17.9c0-0.2,0.1-0.3,0.3-0.4c0.2-0.1,0.4-0.2,0.6-0.2c0.1,0,0.2,0,0.3,0.1
			s0.1,0.1,0.1,0.2c0,0,0,0.1,0,0.1S4.2,17.7,4.1,17.7z"/>
		<path class="st5" d="M5,17.9c0.1,0,0.2,0,0.2,0c0.1,0,0.1,0,0.2,0c0.1,0,0.1,0,0.1,0c0,0,0,0,0,0.1c0,0.1,0,0.1-0.1,0.1
			c-0.1,0-0.2,0-0.3,0c-0.1,0-0.1,0-0.2,0c0,0,0,0.1-0.1,0.3s-0.1,0.3-0.1,0.4c0,0.1,0,0.1,0,0.2c0,0,0.1,0,0.1,0
			c0.1,0,0.2-0.1,0.3-0.2c0,0,0.1-0.1,0.1-0.1c0,0,0.1,0,0.1,0.1c0,0.1-0.1,0.1-0.2,0.2c-0.1,0.1-0.2,0.1-0.3,0.1
			c-0.2,0-0.3-0.1-0.3-0.3c0-0.1,0-0.2,0.1-0.4c0-0.2,0.1-0.3,0.1-0.3c0,0,0,0,0,0l-0.1,0c-0.1,0-0.2,0-0.2-0.1c0,0,0-0.1,0.1-0.1
			h0.2c0,0,0,0,0,0c0,0,0-0.1,0.1-0.2c0-0.1,0-0.2,0.1-0.3c0-0.1,0.1-0.1,0.1-0.1c0,0,0.1,0,0.1,0c0,0,0,0,0,0.1c0,0,0,0.1,0,0.2
			L5,17.9z"/>
		<path class="st5" d="M6.5,18.6c-0.1,0.2-0.2,0.3-0.3,0.3C6,19,5.9,19.1,5.9,19.1c-0.1,0-0.1,0-0.2-0.1c0-0.1-0.1-0.1-0.1-0.2
			c0-0.2,0.1-0.4,0.3-0.7c0.2-0.2,0.4-0.4,0.6-0.4c0.1,0,0.1,0,0.1,0.1c0,0,0,0,0,0c0.1,0,0.1,0,0.1,0.1c0,0,0,0.1,0,0.1
			c0,0.2-0.1,0.4-0.1,0.5c0,0.2,0,0.3,0.1,0.3c0,0,0.1,0,0.1,0.1c0,0,0,0-0.1,0.1c0,0-0.1,0-0.1,0c-0.1,0-0.1,0-0.2-0.1
			C6.5,18.9,6.5,18.8,6.5,18.6z M6.4,18c-0.1,0-0.2,0.1-0.4,0.3c-0.1,0.2-0.2,0.4-0.2,0.5c0,0.1,0,0.1,0.1,0.1
			c0.1,0,0.2-0.1,0.4-0.3c0.2-0.2,0.2-0.3,0.2-0.5C6.5,18,6.5,18,6.4,18z"/>
		<path class="st5" d="M7.4,18.6C7.4,18.6,7.4,18.6,7.4,18.6c0.1-0.2,0.1-0.3,0.2-0.4c0-0.1,0.1-0.1,0.2-0.2s0.1-0.1,0.1-0.1
			s0.1-0.1,0.1-0.1c0,0,0.1,0,0.1,0c0.1,0,0.1,0,0.2,0.1S8.3,18,8.3,18c0,0,0,0,0,0.1c0,0,0,0-0.1,0c0,0-0.1,0-0.1,0
			c0,0-0.1,0-0.1,0c-0.1,0-0.2,0.1-0.3,0.3S7.4,18.7,7.4,19c0,0.1,0,0.1,0,0.1c0,0-0.1,0-0.1,0c0,0-0.1,0-0.1-0.1c0-0.1,0-0.2,0-0.3
			c0,0,0-0.1,0-0.2c0-0.2,0-0.3,0-0.4c0,0,0-0.1,0-0.1c0-0.1,0-0.1,0-0.1c0,0,0,0,0.1-0.1c0,0,0.1,0,0.1,0c0,0,0.1,0,0.1,0
			c0,0,0,0,0,0.1c0,0,0,0.1,0,0.1c0,0.1,0,0.1,0,0.1c0,0,0,0.1,0,0.1C7.4,18.3,7.4,18.4,7.4,18.6L7.4,18.6L7.4,18.6z"/>
		<path class="st5" d="M11.1,17.7c-0.1,0.1-0.2,0.2-0.4,0.5c-0.2,0.2-0.3,0.4-0.3,0.4c-0.1,0.1-0.1,0.1-0.2,0.1c0,0-0.1,0-0.1-0.1
			c0,0-0.1-0.1-0.1-0.3c-0.1-0.3-0.2-0.5-0.2-0.5c0,0,0,0.1,0,0.1c0,0.1-0.1,0.3-0.1,0.5c-0.1,0.4-0.1,0.6-0.1,0.7c0,0,0,0,0,0
			c0,0,0,0-0.1,0c0,0-0.1,0-0.1,0s0-0.1,0-0.1c0-0.1,0-0.2,0.1-0.4l0.1-0.4c0.1-0.2,0.1-0.4,0.1-0.5c0-0.1,0-0.2,0-0.3
			c0-0.1,0.1-0.1,0.2-0.1c0,0,0,0,0.1,0.1s0,0.1,0.1,0.1c0,0,0,0.1,0,0.1l0.2,0.4c0.1,0.2,0.1,0.3,0.1,0.3s0,0,0,0
			c0,0,0.2-0.2,0.4-0.5c0.3-0.4,0.4-0.6,0.5-0.6c0,0,0.1,0,0.1,0c0,0,0.1,0,0.1,0.1c0,0,0,0.2-0.1,0.5c0,0.1,0,0.3,0,0.5
			c0,0.2,0,0.3,0,0.3c0,0,0,0.1,0,0.1c0,0,0,0.1,0,0.1c0,0,0,0.1,0,0.1s0,0.1-0.1,0.1c0,0,0,0-0.1,0C11,19.1,11,19,11,18.9
			c0-0.1,0-0.4,0.1-0.9c0,0,0-0.1,0-0.1c0,0,0,0,0-0.1C11.1,17.8,11.1,17.7,11.1,17.7C11.1,17.7,11.1,17.7,11.1,17.7z"/>
		<path class="st5" d="M12.5,18.5c-0.1,0.2-0.2,0.3-0.3,0.4c-0.1,0.1-0.2,0.1-0.3,0.1c-0.1,0-0.1,0-0.2-0.1s-0.1-0.2-0.1-0.3
			c0-0.1,0-0.3,0.1-0.5c0-0.2,0.1-0.3,0.1-0.4c0,0,0.1-0.1,0.1-0.1c0,0,0.1,0,0.1,0c0,0,0,0,0,0.1c0,0.1,0,0.1-0.1,0.2
			c-0.1,0.2-0.1,0.4-0.1,0.5c0,0.1,0,0.2,0.1,0.2c0.1,0,0.2-0.1,0.3-0.2s0.2-0.3,0.3-0.6c0-0.1,0.1-0.2,0.1-0.2c0,0,0,0,0.1,0
			c0.1,0,0.1,0,0.1,0.1c0,0,0,0,0,0.1c0,0.2-0.1,0.3-0.1,0.5c0,0.2,0,0.3,0.1,0.4c0,0,0,0.1,0,0.1c0,0,0,0,0,0.1c0,0-0.1,0-0.1,0
			c-0.1,0-0.1,0-0.1-0.1S12.5,18.8,12.5,18.5L12.5,18.5C12.5,18.6,12.5,18.6,12.5,18.5z"/>
		<path class="st5" d="M13.8,18.8c0-0.1-0.1-0.1-0.2-0.2c-0.2-0.1-0.3-0.2-0.3-0.2c-0.1,0-0.1-0.1-0.1-0.2c0-0.2,0.1-0.3,0.2-0.4
			s0.3-0.2,0.4-0.2c0.1,0,0.1,0,0.1,0c0,0,0,0.1,0,0.1c0,0,0,0,0,0.1s0,0,0,0c0,0,0,0-0.1,0s0,0,0,0c0,0-0.1,0-0.2,0.1
			s-0.2,0.1-0.2,0.2c0,0,0,0.1,0.1,0.1s0.1,0.1,0.2,0.1c0.1,0,0.2,0.1,0.2,0.1c0.1,0,0.1,0.1,0.1,0.2c0,0.1-0.1,0.2-0.3,0.3
			c-0.2,0.1-0.3,0.1-0.5,0.1c-0.1,0-0.2,0-0.2-0.1c0,0,0-0.1,0-0.1s0.1,0,0.1,0c0,0,0,0,0.1,0s0.1,0,0.1,0c0.1,0,0.2,0,0.3,0
			C13.7,18.9,13.7,18.8,13.8,18.8z"/>
		<path class="st5" d="M14.4,18.8c0,0.1,0,0.1,0,0.2c0,0,0,0,0,0c0,0,0,0,0,0.1c0,0-0.1,0-0.1,0c-0.1,0-0.1-0.1-0.1-0.2
			c0-0.1,0-0.4,0.1-0.7c0-0.1,0-0.2,0-0.2c0,0,0-0.1,0-0.1c0,0,0-0.1,0.1-0.1c0,0,0.1,0,0.1,0c0,0,0,0,0,0.1c0,0,0,0.1,0,0.1
			c-0.1,0.2-0.1,0.4-0.1,0.5C14.4,18.6,14.4,18.7,14.4,18.8z M14.6,17.5C14.6,17.5,14.6,17.4,14.6,17.5
			C14.6,17.4,14.5,17.4,14.6,17.5c-0.1-0.1-0.1-0.2-0.1-0.2c0,0,0-0.1,0.1-0.1c0,0,0.1,0,0.1,0c0,0,0,0,0.1,0c0,0,0,0,0,0.1
			c0,0,0,0.1,0,0.1S14.7,17.4,14.6,17.5C14.6,17.5,14.6,17.5,14.6,17.5z"/>
		<path class="st5" d="M15.2,19.1c-0.1,0-0.2,0-0.3-0.1c-0.1-0.1-0.1-0.2-0.1-0.3c0-0.2,0.1-0.4,0.2-0.7c0.2-0.2,0.3-0.3,0.5-0.3
			c0.1,0,0.1,0,0.2,0.1c0,0.1,0.1,0.1,0.1,0.2c0,0,0,0.1,0,0.1s0,0.1-0.1,0.1c0,0-0.1,0-0.1-0.1c0-0.1-0.1-0.2-0.1-0.2
			c-0.1,0-0.2,0.1-0.3,0.3s-0.2,0.4-0.2,0.5s0.1,0.2,0.2,0.2c0.1,0,0.3-0.1,0.4-0.2c0.1,0,0.1-0.1,0.1-0.1c0,0,0,0,0,0
			c0,0.1-0.1,0.1-0.2,0.2C15.5,19.1,15.4,19.1,15.2,19.1z"/>
	</g>
</g>
</svg>
