<?xml version="1.0" encoding="utf-8"?>
<!-- Generator: Adobe Illustrator 23.0.1, SVG Export Plug-In . SVG Version: 6.00 Build 0)  -->
<svg version="1.1" id="Layer_1" xmlns="http://www.w3.org/2000/svg" xmlns:xlink="http://www.w3.org/1999/xlink" x="0px" y="0px"
	 viewBox="0 0 68 83" style="enable-background:new 0 0 68 83;" xml:space="preserve">
<style type="text/css">
	.st0{fill:#CCCCCC;}
	.st1{fill:#56768B;}
	.st2{fill:#35597C;}
	.st3{fill:#B1E1FC;}
	.st4{fill:#EB565B;}
	.st5{fill:#8BB7A9;}
	.st6{fill:#F5D248;}
	.st7{fill:#F4F8FC;}
	.st8{fill:#16729B;}
</style>
<g>
	<g>
		<path class="st0" d="M17.4,22.5h-2.9c-1.2,0-2.1,0.9-2.1,2.1c0,1.2,0.9,2.1,2.1,2.1h2.9h2.7c1.2,0,2.1,0.9,2.1,2.1
			c0,1.2-0.9,2.1-2.1,2.1h-10H2.1c-1.2,0-2.1,0.9-2.1,2.1c0,1.2,0.9,2.1,2.1,2.1h8h5.8c1.2,0,2.1,0.9,2.1,2.1S17,39,15.9,39H10H5.9
			c-1.2,0-2.1,0.9-2.1,2.1c0,1.2,0.9,2.1,2.1,2.1H10h1.9c1.2,0,2.1,0.9,2.1,2.1s-0.9,2.1-2.1,2.1H10h-8c-1.2,0-2.1,0.9-2.1,2.1
			c0,1.2,0.9,2.1,2.1,2.1h8H8.9c1.2,0,2.1,0.9,2.1,2.1s-0.9,2.1-2.1,2.1H10H6.3c-1.2,0-2.1,0.9-2.1,2.1c0,1.2,0.9,2.1,2.1,2.1H10
			h14.4l2.5-4.2v-4.2V47v-3.5v-4.1v-4.2l3.5-4.2l-0.3-4.2l0.4-4.2H17.4L17.4,22.5z"/>
	</g>
	<g>
		<path class="st1" d="M54.6,59.8c0,1.8-1.5,3.3-3.3,3.3l0,0H25.4c-1.8,0-3.3-1.5-3.3-3.3l0,0V19.2c0-1.8,1.5-3.3,3.3-3.3h25.9
			c1.8,0,3.3,1.5,3.3,3.3l0,0V59.8z"/>
		<path class="st2" d="M26.5,59.8V19.2c0-1.8,1.5-3.3,3.3-3.3h-4.4c-1.8,0-3.3,1.5-3.3,3.3v40.6c0,1.8,1.5,3.3,3.3,3.3l0,0h4.4
			C28,63.1,26.5,61.6,26.5,59.8L26.5,59.8z"/>
		<path class="st3" d="M38.4,38.5c5.5,0,10,4.4,10,10s-4.4,10-10,10s-10-4.4-10-10l0,0C28.4,43,32.9,38.5,38.4,38.5L38.4,38.5z"/>
		<path class="st3" d="M38.4,20.5c3.5,0,6.3,2.8,6.3,6.3s-2.8,6.3-6.3,6.3c-3.5,0-6.3-2.8-6.3-6.3l0,0C32,23.4,34.8,20.5,38.4,20.5z
			"/>
		<path class="st4" d="M49.4,18.3c0.9,0,1.7,0.7,1.7,1.7c0,0.9-0.7,1.7-1.7,1.7c-0.9,0-1.7-0.7-1.7-1.7
			C47.8,19.2,48.5,18.3,49.4,18.3z"/>
		<path class="st4" d="M38.4,24.6c1.2,0,2.2,1,2.2,2.2c0,1.2-1,2.2-2.2,2.2c-1.2,0-2.2-1-2.2-2.2C36.2,25.6,37.1,24.6,38.4,24.6
			L38.4,24.6z"/>
		<path class="st4" d="M49.4,57.1c0.9,0,1.7,0.7,1.7,1.7c0,0.9-0.7,1.7-1.7,1.7c-0.9,0-1.7-0.7-1.7-1.7l0,0
			C47.8,58,48.5,57.1,49.4,57.1z"/>
		<path class="st4" d="M27.3,57.1c0.9,0,1.7,0.7,1.7,1.7c0,0.9-0.7,1.7-1.7,1.7c-0.9,0-1.7-0.7-1.7-1.7l0,0
			C25.5,58,26.4,57.1,27.3,57.1z"/>
		<path class="st4" d="M38.4,44.4c2.2,0,4,1.8,4,4c0,2.2-1.8,4-4,4c-2.2,0-4-1.8-4-4l0,0C34.3,46.3,36.2,44.4,38.4,44.4L38.4,44.4
			L38.4,44.4z"/>
		<path class="st5" d="M27.3,18.3c0.9,0,1.7,0.7,1.7,1.7c0,0.9-0.7,1.7-1.7,1.7c-0.9,0-1.7-0.7-1.7-1.7
			C25.5,19.2,26.4,18.3,27.3,18.3z"/>
		<path class="st2" d="M50.8,63.2v4h-6.8v-4v-0.2h6.8V63.2z"/>
		<path class="st2" d="M32.4,63.2v4h-6.8v-4v-0.2h6.8V63.2z"/>
		<path class="st6" d="M61.5,38.7c0-0.2-0.1-0.3-0.1-0.5V24.5c0-1-0.8-1.9-1.9-1.9c-0.2,0-0.2,0-0.3,0l-9.5,1.9
			c-0.9,0.2-1.5,0.9-1.5,1.8v6.8c-1.3-0.7-3-0.2-3.7,1.1c-0.7,1.3-0.2,3,1.1,3.7c1.3,0.7,3,0.2,3.7-1.1c0.3-0.7,0.4-1.4,0.2-2.1
			v-4.9l10.5-2.1v8.9c-1.3-0.7-3-0.2-3.7,1.2c-0.7,1.3-0.2,3,1.2,3.7c1.3,0.7,3,0.2,3.7-1.2c0.2-0.4,0.3-0.8,0.3-1.3
			C61.5,38.9,61.5,38.8,61.5,38.7L61.5,38.7z"/>
		<path class="st7" d="M25.1,47.2c-0.3,0-0.7-0.3-0.7-0.7V34c0-0.3,0.3-0.7,0.7-0.7c0.3,0,0.7,0.3,0.7,0.7v12.6
			C25.8,47,25.5,47.2,25.1,47.2z"/>
		<path class="st7" d="M25,32.3c-0.3,0-0.7-0.3-0.7-0.7v-4.5c0-0.3,0.3-0.7,0.7-0.7c0.3,0,0.7,0.3,0.7,0.7v4.5
			C25.7,31.9,25.4,32.3,25,32.3z"/>
		<path class="st7" d="M25,25.3c-0.3,0-0.7-0.3-0.7-0.7v-0.7c0-0.3,0.3-0.7,0.7-0.7c0.3,0,0.7,0.3,0.7,0.7v0.7
			C25.7,24.9,25.4,25.3,25,25.3z"/>
	</g>
	<path class="st0" d="M64.6,59.4c2.6,1,4,3.5,3.2,5.5c-0.8,2.1-3.5,2.9-6.1,1.9s-4-3.5-3.2-5.5C59.3,59.3,62,58.4,64.6,59.4z"/>
</g>
<path class="st6" d="M13.3,5.8c1.2,1.3,0.7,3.9-1.3,5.7s-4.5,2.3-5.8,1S5.6,8.6,7.6,6.8C9.5,4.9,12.1,4.5,13.3,5.8z"/>
<path class="st3" d="M54.8,2.7c-0.2,0.6-1.3,0.7-2.3,0.3S50.8,1.8,51,1.2s1.3-0.7,2.3-0.3C54.4,1.3,55,2.1,54.8,2.7z"/>
<path class="st4" d="M11.8,72.8c0.8,0.8,0.5,2.3-0.6,3.5s-2.7,1.4-3.5,0.6c-0.8-0.8-0.5-2.3,0.6-3.5C9.5,72.3,11.1,72,11.8,72.8z"/>
<path class="st2" d="M42.2,9.6c0.2,1.5-1.1,2.8-2.9,3c-1.8,0.2-3.4-0.8-3.6-2.2c-0.2-1.5,1.1-2.8,2.9-3C40.4,7.1,42,8.1,42.2,9.6z"
	/>
<path class="st3" d="M38.8,77.3c0.9,0,1.6,0.9,1.6,2c0,1.1-0.7,2-1.6,2s-1.6-0.9-1.6-2C37.2,78.3,38,77.3,38.8,77.3z"/>
<path class="st8" d="M22.8,52.9c0-0.1-0.1-0.2-0.1-0.2l-2.5-6.8c-0.2-0.5-0.8-0.8-1.3-0.6c-0.1,0-0.1,0.1-0.2,0.1l-4.3,2.7
	c-0.4,0.2-0.6,0.7-0.4,1.2l1.2,3.3c-0.8-0.1-1.5,0.4-1.6,1.2s0.4,1.5,1.2,1.6s1.5-0.4,1.6-1.2c0.1-0.4,0-0.8-0.3-1.1l-0.9-2.4l4.8-3
	l1.6,4.4c-0.8-0.1-1.5,0.5-1.6,1.2c-0.1,0.8,0.5,1.5,1.2,1.6c0.8,0.1,1.5-0.5,1.6-1.2c0-0.2,0-0.5-0.1-0.7
	C22.8,53,22.8,53,22.8,52.9L22.8,52.9z"/>
</svg>
