<svg width="26" height="26" viewBox="0 0 26 26" fill="none" xmlns="http://www.w3.org/2000/svg">
<g clip-path="url(#clip0)">
<path d="M13.0005 0C5.83245 0 0 5.83245 0 13.0005C0 20.1685 5.83245 26.001 13.0005 26.001C20.1685 26.001 26.001 20.1685 26.001 13.0005C26.001 5.83245 20.1685 0 13.0005 0ZM20.2658 9.579L11.9575 17.8224C11.4685 18.3115 10.6868 18.3439 10.1653 17.8548L5.76665 13.847C5.24517 13.358 5.21277 12.5438 5.66844 12.0224C6.15751 11.5009 6.97163 11.4685 7.49311 11.9575L10.9794 15.1502L18.4077 7.72193C18.9292 7.20045 19.7433 7.20045 20.2648 7.72193C20.7872 8.2434 20.7872 9.05753 20.2658 9.579Z" fill="#D8DDE1"/>
</g>
<defs>
<clipPath id="clip0">
<rect width="26" height="26" fill="white"/>
</clipPath>
</defs>
</svg>
