<?xml version="1.0" encoding="utf-8"?>
<!-- Generator: Adobe Illustrator 23.0.1, SVG Export Plug-In . SVG Version: 6.00 Build 0)  -->
<svg version="1.1" id="Layer_1" xmlns="http://www.w3.org/2000/svg" xmlns:xlink="http://www.w3.org/1999/xlink" x="0px" y="0px"
	 viewBox="0 0 275 63" style="enable-background:new 0 0 275 63;" xml:space="preserve">
<style type="text/css">
	.st0{fill:#CCCCCC;}
	.st1{fill:#56768B;}
	.st2{fill:#35597C;}
	.st3{fill:#B1E1FC;}
	.st4{fill:#EB565B;}
	.st5{fill:#8BB7A9;}
	.st6{fill:#F5D248;}
	.st7{fill:#F4F8FC;}
	.st8{fill:#3D737F;}
	.st9{fill:#AF9F6D;}
</style>
<g>
	<g>
		<g>
			<path class="st0" d="M21.1,8.6h-3.5c-1.4,0-2.5,1.1-2.5,2.5s1.1,2.5,2.5,2.5h3.5h3.3c1.4,0,2.5,1.1,2.5,2.5s-1.1,2.5-2.5,2.5
				H12.3H2.5c-1.4,0-2.5,1.1-2.5,2.5s1.1,2.5,2.5,2.5h9.7h7.1c1.4,0,2.5,1.1,2.5,2.5s-1.1,2.5-2.5,2.5h-7.1h-5
				c-1.4,0-2.5,1.1-2.5,2.5s1.1,2.5,2.5,2.5h5h2.3c1.4,0,2.5,1.1,2.5,2.5s-1.1,2.5-2.5,2.5h-2.3H2.5c-1.4,0-2.5,1.1-2.5,2.5
				s1.1,2.5,2.5,2.5h9.7h-1.4c1.4,0,2.5,1.1,2.5,2.5s-1.1,2.5-2.5,2.5h1.4H7.6c-1.4,0-2.5,1.1-2.5,2.5s1.1,2.5,2.5,2.5h4.6h17.5
				l3-5.1v-5.1v-5.1V34v-5v-5.1l4.2-5.1l-0.4-5.1L37,8.6H21.1L21.1,8.6z"/>
		</g>
		<g>
			<path class="st1" d="M66.3,53.8c0,2.2-1.8,4-4,4l0,0H30.9c-2.2,0-4-1.8-4-4l0,0V4.5c0-2.2,1.8-4,4-4h31.4c2.2,0,4,1.8,4,4l0,0
				V53.8z"/>
			<path class="st2" d="M32.2,53.8V4.5c0-2.2,1.8-4,4-4h-5.4c-2.2,0-4,1.8-4,4v49.3c0,2.2,1.8,4,4,4l0,0h5.4
				C34,57.8,32.2,56,32.2,53.8L32.2,53.8z"/>
			<path class="st3" d="M46.6,28c6.7,0,12.1,5.4,12.1,12.1s-5.4,12.1-12.1,12.1s-12.1-5.4-12.1-12.1l0,0C34.5,33.4,39.9,28,46.6,28
				L46.6,28z"/>
			<path class="st3" d="M46.6,6.1c4.2,0,7.7,3.4,7.7,7.7s-3.4,7.7-7.7,7.7c-4.2,0-7.7-3.4-7.7-7.7l0,0C38.9,9.6,42.3,6.1,46.6,6.1z"
				/>
			<path class="st4" d="M60,3.5c1.1,0,2.1,0.9,2.1,2.1c0,1.1-0.9,2.1-2.1,2.1c-1.1,0-2.1-0.9-2.1-2.1C58,4.5,58.9,3.5,60,3.5z"/>
			<path class="st4" d="M46.6,11.1c1.5,0,2.7,1.2,2.7,2.7s-1.2,2.7-2.7,2.7s-2.7-1.2-2.7-2.7C43.9,12.3,45.1,11.1,46.6,11.1
				L46.6,11.1z"/>
			<path class="st4" d="M60,50.6c1.1,0,2.1,0.9,2.1,2.1c0,1.1-0.9,2.1-2.1,2.1c-1.1,0-2.1-0.9-2.1-2.1l0,0
				C58,51.6,58.9,50.6,60,50.6z"/>
			<path class="st4" d="M33.1,50.6c1.1,0,2.1,0.9,2.1,2.1c0,1.1-0.9,2.1-2.1,2.1c-1.1,0-2.1-0.9-2.1-2.1l0,0
				C31,51.6,32,50.6,33.1,50.6z"/>
			<path class="st4" d="M46.6,35.2c2.7,0,4.9,2.2,4.9,4.9S49.3,45,46.6,45s-4.9-2.2-4.9-4.9l0,0C41.7,37.4,43.9,35.2,46.6,35.2
				L46.6,35.2L46.6,35.2z"/>
			<path class="st5" d="M33.1,3.5c1.1,0,2.1,0.9,2.1,2.1c0,1.1-0.9,2.1-2.1,2.1C32,7.7,31,6.8,31,5.6C31,4.5,32,3.5,33.1,3.5z"/>
			<path class="st2" d="M61.7,58v4.8h-8.2V58v-0.2h8.2V58z"/>
			<path class="st2" d="M39.4,58v4.8h-8.2V58v-0.2h8.2V58z"/>
			<path class="st6" d="M74.7,28.2c0-0.2-0.1-0.4-0.1-0.6V11c0-1.2-1-2.3-2.3-2.3c-0.2,0-0.3,0-0.4,0L60.4,11
				c-1.1,0.2-1.8,1.1-1.8,2.2v8.2c-1.6-0.9-3.7-0.3-4.5,1.3c-0.9,1.6-0.3,3.7,1.3,4.5s3.7,0.3,4.5-1.3c0.4-0.8,0.5-1.7,0.3-2.5v-6
				L73,14.9v10.8c-1.6-0.9-3.7-0.2-4.5,1.4c-0.9,1.6-0.2,3.7,1.4,4.5c1.6,0.9,3.7,0.2,4.5-1.4c0.3-0.5,0.4-1,0.4-1.6
				C74.7,28.5,74.7,28.4,74.7,28.2L74.7,28.2z"/>
			<path class="st7" d="M30.5,38.6c-0.4,0-0.8-0.4-0.8-0.8V22.5c0-0.4,0.4-0.8,0.8-0.8s0.8,0.4,0.8,0.8v15.3
				C31.3,38.3,31,38.6,30.5,38.6z"/>
			<path class="st7" d="M30.4,20.4c-0.4,0-0.8-0.4-0.8-0.8v-5.5c0-0.4,0.4-0.8,0.8-0.8s0.8,0.4,0.8,0.8v5.5
				C31.2,20,30.9,20.4,30.4,20.4z"/>
			<path class="st7" d="M30.4,11.9c-0.4,0-0.8-0.4-0.8-0.8v-0.8c0-0.4,0.4-0.8,0.8-0.8s0.8,0.4,0.8,0.8v0.8
				C31.2,11.5,30.9,11.9,30.4,11.9z"/>
		</g>
		<g>
			<path class="st8" d="M93.9,33.7c-0.5,0-0.9-0.2-1.3-0.6c-2.7-2.5-5.7-4.3-8.9-5.3c0.1,2.6,0.1,4,0.1,4.3c0,0.5-0.2,0.9-0.5,1.3
				c-0.4,0.4-0.8,0.5-1.3,0.5s-1-0.2-1.3-0.5c-0.4-0.4-0.5-0.8-0.5-1.3c0-0.7,0-1.7,0-3s0-2.3,0-3V15.3c0-0.6,0.2-1.1,0.5-1.6
				c0.5-0.6,1.1-0.9,1.9-0.8c2.2,0.2,3.3,0.2,3.3,0.3c1.2,0.2,2.3,0.5,3.2,0.9c3.8,1.9,5.7,4.3,5.7,7.1c0,1.2-0.4,2.2-1.2,3.1
				c-0.8,0.9-2,1.7-3.6,2.3c2.4,1.3,4.1,2.7,5.3,4c0.3,0.4,0.5,0.8,0.5,1.2c0,0.5-0.2,0.9-0.6,1.3C94.8,33.5,94.4,33.7,93.9,33.7z
				 M85.3,16.8c-0.1,0-0.6,0-1.6-0.1v7.1c0.2,0,0.4,0,0.6,0c2.2,0,3.8-0.3,4.9-0.8c0.5-0.2,0.9-0.5,1.3-0.9s0.6-0.7,0.6-0.9
				c0-1-0.6-2-1.9-2.9C87.9,17.5,86.6,17,85.3,16.8z"/>
			<path class="st8" d="M106.9,34.3c-2.6,0-4.9-0.8-6.7-2.3c-2-1.6-3-3.7-3-6.3c0-3,0.9-5.8,2.8-8.3c2.1-2.8,4.8-4.2,8-4.2
				c3.1,0,5.4,0.7,7,2.1s2.3,3.6,2.3,6.4c0,3-0.9,5.8-2.6,8.2C112.7,32.9,110.1,34.3,106.9,34.3z M108,16.9c-2,0-3.7,1-5.1,2.9
				c-1.3,1.8-2,3.8-2,6c0,1.5,0.6,2.7,1.7,3.6s2.5,1.3,4.2,1.3c2,0,3.6-1,4.9-2.9c1.2-1.8,1.8-3.8,1.8-6c0-1.9-0.4-3.2-1.3-3.9
				C111.5,17.2,110.1,16.9,108,16.9z"/>
			<path class="st8" d="M134.3,17c-0.5,0.9-1.4,3-2.7,6.1c-1.1,2.6-2.1,4.6-2.9,6.1c-1.4,2.6-2.1,3.9-2.2,4.1
				c-0.5,0.8-1.1,1.2-1.8,1.2c-0.5,0-0.9-0.2-1.3-0.5c-0.4-0.4-0.6-0.8-0.6-1.3c0-0.4,0.9-2.3,2.8-5.5c-0.7-1-1.7-2.5-3-4.5
				c-1-1.5-2.4-3.7-4.2-6.7c-0.2-0.3-0.3-0.6-0.3-0.9c0-0.5,0.2-1,0.6-1.3s0.8-0.5,1.3-0.5c0.6,0,1.1,0.3,1.6,0.9l1,1.6
				c0.1,0.1,0.8,1.4,2.3,3.9c0.9,1.6,1.7,2.9,2.5,3.8c0.7-1.4,1.7-3.4,2.9-6.2c0.3-0.6,0.7-1.5,1.2-2.8c0.3-0.8,0.9-1.2,1.7-1.2
				c0.5,0,0.9,0.2,1.3,0.5c0.4,0.3,0.6,0.8,0.6,1.3C135.1,15.3,134.9,15.9,134.3,17z"/>
			<path class="st8" d="M152.3,33.9c-0.7,0-1.4-0.9-2.1-2.5c-0.5-1.1-0.9-2.3-1.2-3.6c-0.7,0.1-1.7,0.2-3.2,0.3
				c-1.4,0.1-2.5,0.2-3.2,0.3c-0.4,1-1.1,2.5-2.1,4.4c-0.4,0.6-0.9,1-1.6,1c-0.5,0-0.9-0.2-1.3-0.5c-0.4-0.3-0.6-0.8-0.6-1.3
				s0.7-2,2-4.6c-0.1-0.3-0.2-0.5-0.2-0.8c0-0.4,0.5-0.8,1.3-1c1.3-2.2,2.7-4.5,4.2-6.8c2.2-3.4,3.6-5.1,4.1-5.1c1,0,1.6,0.6,2,1.8
				c0.2,1,0.5,2.4,0.8,4.3c0.5,2.6,1.2,5.5,2,8.8c0.1,0.3,0.3,0.8,0.7,1.8c0.3,0.8,0.5,1.3,0.5,1.7c0,0.5-0.2,0.9-0.6,1.3
				S152.8,33.9,152.3,33.9z M147.3,20.2c-0.7,1.2-1.7,2.8-2.9,4.9c0.4-0.1,1-0.2,1.9-0.2c1-0.1,1.6-0.1,1.9-0.1
				C148,23.5,147.7,22,147.3,20.2z"/>
			<path class="st8" d="M169.6,33c-1.1,0.5-2.7,0.9-4.9,1.2c-2,0.3-3.7,0.5-5,0.5c-2.2,0-3.3-1-3.3-2.9c0,0.2,0.1-1.3,0.3-4.2
				c0.2-3.9,0.3-8.2,0.3-12.9c0-0.5,0.2-0.9,0.5-1.3c0.4-0.4,0.8-0.5,1.3-0.5s1,0.2,1.3,0.5s0.5,0.8,0.5,1.3c0,4.8-0.1,9.1-0.4,13.1
				c-0.1,0.7-0.2,1.8-0.3,3.3c2.1,0,4.8-0.6,8.1-1.6c0.2-0.1,0.4-0.1,0.6-0.1c0.6,0,1,0.2,1.4,0.6c0.3,0.4,0.5,0.8,0.5,1.2
				C170.7,32.1,170.3,32.6,169.6,33z"/>
			<path class="st8" d="M194.4,33c-2.1,0.8-4.7,1.2-7.9,1.2c-0.5,0-1-0.2-1.4-0.7c-0.4-0.4-0.6-0.9-0.6-1.4V17.9
				c0-0.6,0-1.2-0.1-1.8c0-0.7,0-1.3,0.1-1.7c0.1-0.8,0.9-1.3,2.3-1.5c0.7-0.2,1.8-0.3,3.4-0.3c1.7,0,3.3,0.5,4.8,1.6
				c1.8,1.3,2.7,2.8,2.7,4.7c0,1-0.2,1.9-0.6,2.6c-0.3,0.6-0.8,1.2-1.5,1.8c0.9,0.4,1.6,1.1,2.3,1.9c0.8,0.9,1.1,1.9,1.1,2.8
				c0,1.2-0.6,2.3-1.9,3.4C196.2,32.1,195.3,32.6,194.4,33z M190.2,16.1c-1.1,0-1.8,0-2.1,0v2.8v2.8c0.8,0.1,1.4,0.1,1.8,0.1
				c2.7-0.2,4.1-1.2,4.1-3c0-0.6-0.4-1.2-1.2-1.8C192,16.4,191.1,16.1,190.2,16.1z M191.7,25.6c-0.8,0-2,0-3.6-0.1v5
				c1.5-0.1,3.2-0.4,5-0.9c1.6-0.4,2.3-0.9,2.3-1.4c0-0.7-0.5-1.3-1.5-1.8C193.1,25.9,192.4,25.6,191.7,25.6z"/>
			<path class="st8" d="M214.7,16.4c-0.2,0-0.4,0-0.6-0.1c-1.4-0.4-2.8-0.6-4.2-0.6c-0.7,0-1.4,0.1-2.2,0.2s-1.6,0.3-2.4,0.5
				c0,1.2,0,2.9-0.1,5.3c0.5,0,2.2-0.2,5.2-0.5c1.7-0.2,2.8-0.3,3.2-0.3c0.5,0,1,0.2,1.4,0.5s0.6,0.8,0.6,1.3c0,1.1-0.6,1.7-1.7,1.8
				c-0.7,0.1-1.8,0.1-3.2,0.3c-1.3,0.1-3.2,0.3-5.7,0.5c-0.1,1.1-0.1,2-0.1,2.7c0,1.7,0.1,2.7,0.3,3c0.1,0.1,0.7,0.2,1.7,0.2
				c0.6,0,1.4,0,2.5,0s1.9,0,2.5,0c0.2,0,0.4,0,0.8-0.1c0.3-0.1,0.6-0.1,0.8-0.1c0.5,0,1,0.1,1.3,0.4c0.4,0.3,0.6,0.8,0.6,1.4
				c0,1-0.5,1.6-1.6,1.8c-0.9,0.2-2.7,0.3-5.5,0.3c-2.9,0-4.8-0.4-5.7-1.2c-1-0.9-1.5-2.7-1.5-5.6c0-1.2,0.1-3,0.3-5.4
				s0.3-4.2,0.3-5.4c0-0.3,0-0.8-0.1-1.4s-0.1-1.1-0.1-1.4c0-1.4,0.6-2,1.9-2c0.4,0,0.8,0.1,1.1,0.3c1-0.3,2-0.5,2.9-0.6
				s1.8-0.2,2.6-0.2c2.2,0,4,0.3,5.4,0.8c0.8,0.3,1.2,0.9,1.2,1.7c0,0.5-0.2,0.9-0.5,1.2C215.7,16.2,215.2,16.4,214.7,16.4z"/>
			<path class="st8" d="M233.6,33.9c-0.7,0-1.4-0.9-2.1-2.5c-0.5-1.1-0.9-2.3-1.2-3.6c-0.7,0.1-1.7,0.2-3.2,0.3
				c-1.4,0.1-2.5,0.2-3.2,0.3c-0.4,1-1.1,2.5-2.1,4.4c-0.4,0.6-0.9,1-1.6,1c-0.5,0-0.9-0.2-1.3-0.5c-0.4-0.3-0.6-0.8-0.6-1.3
				s0.7-2,2-4.6c-0.1-0.3-0.2-0.5-0.2-0.8c0-0.4,0.5-0.8,1.3-1c1.3-2.2,2.7-4.5,4.2-6.8c2.2-3.4,3.6-5.1,4.1-5.1c1,0,1.6,0.6,2,1.8
				c0.2,1,0.5,2.4,0.8,4.3c0.5,2.6,1.2,5.5,2,8.8c0.1,0.3,0.3,0.8,0.7,1.8c0.3,0.8,0.5,1.3,0.5,1.7c0,0.5-0.2,0.9-0.6,1.3
				S234.1,33.9,233.6,33.9z M228.7,20.2c-0.7,1.2-1.7,2.8-2.9,4.9c0.4-0.1,1-0.2,1.9-0.2c1-0.1,1.6-0.1,1.9-0.1
				C229.3,23.5,229,22,228.7,20.2z"/>
			<path class="st8" d="M254.3,17.5c-0.7,0-1.8,0-3.2-0.1s-2.5-0.1-3.2-0.1c0,1,0.2,2.8,0.4,5.4c0.2,2.3,0.3,4.1,0.3,5.5
				c0,0.3,0,0.8,0.1,1.4s0.1,1,0.1,1.4c0,0.7-0.1,1.3-0.4,1.8c-0.4,0.7-0.9,1-1.6,1c-0.5,0-0.9-0.2-1.3-0.5
				c-0.4-0.3-0.6-0.8-0.6-1.3c0-0.1,0-0.3,0.1-0.6c0-0.3,0.1-0.4,0.1-0.6c0-0.4,0-1-0.1-1.9c-0.1-0.8-0.1-1.5-0.1-1.9
				c0-1.2-0.1-2.8-0.3-4.9c-0.2-2.3-0.3-4-0.4-4.9h-0.7c-2,0-3.6-0.1-4.7-0.4c-1-0.2-1.5-0.8-1.5-1.8c0-0.5,0.2-0.9,0.5-1.2
				c0.4-0.4,0.9-0.6,1.5-0.6c0.3,0,1,0.1,2.1,0.2c0.9,0.1,1.6,0.1,2.1,0.1s1.4,0,2.4,0c1.1,0,1.9,0,2.4,0c0.7,0,1.7,0,3,0.1
				c1.4,0.1,2.4,0.1,3,0.1c0.5,0,1,0.2,1.3,0.5c0.4,0.3,0.5,0.8,0.5,1.3s-0.2,0.9-0.5,1.3S254.8,17.5,254.3,17.5z"/>
			<path class="st8" d="M263.6,34.3c-2.3,0-4-0.5-5.3-1.5c-1.1-0.8-1.6-1.8-1.6-2.9c0-0.6,0.2-1,0.5-1.4s0.8-0.6,1.4-0.6
				c0.8,0,1.4,0.4,1.8,1.2c0.5,1.1,1.7,1.6,3.4,1.6c1.5,0,3-0.3,4.5-1s2.2-1.4,2.2-2.3c0-1.1-0.5-1.9-1.4-2.2c-0.7-0.3-2-0.4-4-0.5
				c-1.5,0-2.9-0.3-4.1-0.9c-1.6-0.7-2.5-1.8-2.4-3.2c0-1.7,1-3.3,2.8-4.8s3.8-2.2,6-2.2c0.9,0,2,0.2,3.2,0.6
				c1.6,0.5,2.4,1.1,2.4,1.7c0,0.5-0.2,0.9-0.5,1.2c-0.4,0.4-0.8,0.6-1.4,0.6c-0.4,0-1-0.1-1.9-0.3c-0.8-0.2-1.5-0.3-1.9-0.3
				c-1.1,0-2.2,0.3-3.3,0.8c-1.1,0.6-1.6,1.2-1.6,1.8c0,0.3,0.2,0.6,0.5,0.8s0.8,0.4,1.5,0.5c1.1,0.1,2.3,0.1,3.4,0.2
				c2,0.2,3.5,0.7,4.7,1.7c1.3,1.1,1.9,2.5,1.9,4.4c0,2.3-1.3,4-3.9,5.2C268.5,33.9,266.2,34.3,263.6,34.3z"/>
		</g>
		<g>
			<path class="st4" d="M89.2,51.8c-0.3,0-0.5-0.1-0.6-0.4c-0.3-0.5-0.6-1-1.2-1.7L86.1,48c-0.3,0.2-0.7,0.5-1.3,0.9
				c-0.1,0.7-0.1,1.4-0.1,2.1c0,0.2-0.1,0.4-0.2,0.5s-0.3,0.2-0.5,0.2c-0.5,0-0.8-0.3-0.8-0.9c0-0.4,0-1,0.1-1.7
				c0.1-0.8,0.1-1.3,0.1-1.7c0-0.7,0-1.5,0-2.4s0-1.7,0-2.4c0-0.2,0-0.5,0-0.7c0-0.3,0-0.5,0-0.7s0.1-0.4,0.2-0.5s0.3-0.2,0.5-0.2
				s0.4,0.1,0.5,0.2c0.1,0.1,0.2,0.3,0.2,0.5s0,0.5,0,0.8s0,0.5,0,0.8L84.7,45c0,0.8,0,1.6,0,2.4c0.7-0.5,1.3-1,1.9-1.6l1.6-1.6
				c0.2-0.2,0.3-0.2,0.5-0.2s0.4,0.1,0.5,0.2c0.2,0.1,0.2,0.3,0.2,0.5s-0.1,0.3-0.2,0.5c-0.6,0.7-1.4,1.4-2.3,2.1l1.6,2.1
				c0.8,1,1.1,1.6,1.1,1.9c0,0.2-0.1,0.3-0.2,0.5C89.6,51.8,89.4,51.8,89.2,51.8z"/>
			<path class="st4" d="M93,48.4c0,0.3,0,0.7,0,1.2c0,0.6,0,1,0,1.2s-0.1,0.4-0.2,0.5s-0.3,0.2-0.5,0.2s-0.4-0.1-0.5-0.2
				c-0.1-0.1-0.2-0.3-0.2-0.5c0-0.3,0-0.7,0-1.2c0-0.6,0-1,0-1.2c0-0.4,0-1,0.1-1.6c0-0.6,0.1-1.2,0.1-1.6c0-0.2,0.1-0.4,0.2-0.5
				s0.3-0.2,0.5-0.2s0.4,0.1,0.5,0.2c0.1,0.1,0.2,0.3,0.2,0.5c0,0.4,0,1-0.1,1.6S93,48,93,48.4z M92.7,42.8c-0.2,0-0.4-0.1-0.6-0.2
				c-0.2-0.2-0.3-0.3-0.3-0.6s0.1-0.4,0.3-0.6c0.2-0.2,0.4-0.2,0.6-0.2s0.4,0.1,0.6,0.2s0.3,0.3,0.3,0.6s-0.1,0.4-0.3,0.6
				C93.1,42.7,92.9,42.8,92.7,42.8z"/>
			<path class="st4" d="M101.2,52c-0.4,0-0.7-0.2-0.7-0.7l-0.2-1.5c-0.1-0.5-0.1-1-0.1-1.5c0-0.1,0-0.3,0-0.7c0-0.3,0-0.5,0-0.7
				c0-1-0.2-1.5-0.6-1.5c-0.6,0-1.1,0.3-1.6,0.9c-0.5,0.6-0.8,1.3-1.1,2.1c0,0.2,0,0.4-0.1,0.7c0,0.2,0,0.5,0,0.7c0,0.1,0,0.3,0,0.6
				s0,0.5,0,0.6c0,0.2-0.1,0.4-0.2,0.5s-0.3,0.2-0.5,0.2s-0.4-0.1-0.5-0.2c-0.1-0.1-0.2-0.3-0.2-0.5c0-0.1,0-0.3,0-0.6s0-0.5,0-0.6
				c0-0.5,0-1.1,0.1-2s0.1-1.5,0.1-2c0-0.1,0-0.4,0-0.7s0-0.5,0-0.7s0.1-0.4,0.2-0.5s0.3-0.2,0.5-0.2c0.5,0,0.7,0.3,0.8,0.9v0.8
				c0.8-1,1.7-1.6,2.6-1.6c0.8,0,1.3,0.3,1.7,1c0.2,0.4,0.3,1.1,0.3,1.9v0.7V48c0,0.4,0.1,0.9,0.2,1.5s0.2,1.1,0.2,1.5
				c0,0.2-0.1,0.4-0.2,0.5C101.6,52,101.4,52,101.2,52z"/>
			<path class="st4" d="M109.6,48.6l-0.2,2.3c0,0.9-0.1,1.7-0.3,2.3c-0.2,0.7-0.6,1.3-1.1,1.7c-0.6,0.4-1.5,0.6-2.6,0.6
				c-0.7,0-1.2,0-1.7-0.1c-0.6-0.1-0.9-0.4-0.9-0.7c0-0.4,0.2-0.6,0.6-0.6c0.2,0,0.5,0,0.9,0.1s0.9,0.1,1.4,0.1c1,0,1.6-0.4,2-1.3
				c0.2-0.6,0.4-1.4,0.4-2.6c-0.3,0.5-0.6,0.8-1,1s-0.8,0.3-1.3,0.3c-0.9,0-1.6-0.3-2.2-0.9c-0.6-0.6-0.8-1.3-0.8-2.2
				c0-1.2,0.4-2.3,1.2-3c0.8-0.8,1.9-1.2,3.2-1.2c0.5,0,0.8,0.1,1.2,0.2c0.3,0.1,0.5,0.3,0.7,0.5c0.5,0,0.8,0.3,0.8,0.8
				c0,0.3-0.1,0.8-0.2,1.3C109.7,47.9,109.6,48.3,109.6,48.6z M107.2,45.6c-0.9,0-1.7,0.3-2.2,0.9c-0.5,0.5-0.7,1.2-0.7,2.1
				c0,0.7,0.1,1.2,0.4,1.5s0.7,0.5,1.2,0.5s1-0.3,1.5-0.8c0.4-0.5,0.7-1,0.7-1.4c0.1-0.5,0.2-1.3,0.3-2.3c-0.2-0.1-0.4-0.2-0.6-0.3
				S107.5,45.6,107.2,45.6z"/>
			<path class="st4" d="M118.9,52c-0.8,0-1.5-0.3-2.1-0.9c-0.7-0.6-1-1.5-1.1-2.6c0-1,0.3-2,0.8-2.8c0.7-0.9,1.7-1.4,2.9-1.4
				c1,0,1.7,0.4,2.3,1.3c0.4,0.7,0.6,1.5,0.6,2.5s-0.3,1.9-0.9,2.6C120.8,51.5,120,52,118.9,52z M119.4,45.8c-0.7,0-1.3,0.3-1.7,1
				c-0.3,0.5-0.5,1.1-0.5,1.8s0.2,1.2,0.6,1.6c0.3,0.3,0.7,0.5,1.2,0.5s1-0.2,1.3-0.5c0.4-0.4,0.6-0.9,0.7-1.6
				C121,46.7,120.5,45.8,119.4,45.8z"/>
			<path class="st4" d="M129.1,41.8c-1.2,0-1.9,0.8-2,2.3v0.4c0.8-0.1,1.4-0.1,1.6-0.1c0.8,0,1.2,0.2,1.2,0.7c0,0.3-0.2,0.5-0.6,0.6
				c-0.2,0-0.4,0-0.6,0c-0.2,0-0.8,0-1.7,0.1l-0.1,1.6c0,0.3,0,0.7,0,1.3s0,1,0,1.3c0,0.9-0.1,1.6-0.2,2.1c-0.1,0.4-0.3,0.6-0.7,0.6
				c-0.2,0-0.4-0.1-0.5-0.2c-0.1-0.1-0.2-0.3-0.2-0.5v-0.1c0.1-0.6,0.2-1.3,0.2-2V48v-2c-0.6,0-1,0.1-1.2,0.1
				c-0.5,0-0.8-0.2-0.8-0.7s0.4-0.7,1.3-0.7h0.7c0-0.3,0.1-0.6,0.1-1.1c0.1-1,0.4-1.8,0.8-2.3c0.5-0.6,1.3-0.9,2.4-0.9
				c0.7,0,1.1,0.2,1.1,0.7C130.1,41.6,129.8,41.8,129.1,41.8z"/>
			<path class="st4" d="M141.4,46.2c-0.3,0-0.5-0.1-0.6-0.3c-0.1-0.1-0.1-0.4-0.2-0.7c-0.4,0.1-0.9,0.2-1.7,0.5s-1.2,0.7-1.2,1.1
				c0.1,0.1,0.3,0.1,0.4,0.1c1.1,0.2,2,0.5,2.5,0.8c0.8,0.5,1.2,1.2,1.2,2.1c0,0.8-0.3,1.3-1,1.7c-0.6,0.3-1.3,0.5-2.2,0.5
				c-0.6,0-1.3-0.1-1.9-0.3c-0.8-0.3-1.1-0.6-1.1-1.1c0-0.2,0.1-0.3,0.2-0.5c0.2-0.1,0.3-0.2,0.5-0.2s0.4,0.1,0.6,0.3
				c0.1,0.1,0.4,0.2,0.8,0.3c0.3,0.1,0.6,0.1,0.8,0.1c0.4,0,0.8,0,1.1-0.1c0.5-0.1,0.7-0.3,0.7-0.6c0-0.6-0.5-1.1-1.4-1.3l-0.8-0.2
				c-0.7-0.1-1.1-0.3-1.4-0.5c-0.4-0.3-0.6-0.6-0.6-1.2c0-1,0.5-1.7,1.5-2.1c0.3-0.1,0.8-0.3,1.4-0.4c0.7-0.2,1.1-0.3,1.4-0.4
				c0.2-0.1,0.4-0.1,0.7-0.1c0.2,0,0.4,0.1,0.5,0.2c0.1,0.1,0.2,0.3,0.2,0.5c0,0.1,0,0.3,0.1,0.6s0.1,0.5,0.1,0.6
				c0,0.2-0.1,0.4-0.2,0.5C141.8,46.2,141.6,46.2,141.4,46.2z"/>
			<path class="st4" d="M146.6,52c-0.8,0-1.5-0.3-2.1-0.9c-0.7-0.6-1-1.5-1.1-2.6c0-1,0.3-2,0.8-2.8c0.7-0.9,1.7-1.4,2.9-1.4
				c1,0,1.7,0.4,2.3,1.3c0.4,0.7,0.6,1.5,0.6,2.5s-0.3,1.9-0.9,2.6C148.5,51.5,147.7,52,146.6,52z M147.1,45.8c-0.7,0-1.3,0.3-1.7,1
				c-0.3,0.5-0.5,1.1-0.5,1.8s0.2,1.2,0.6,1.6c0.3,0.3,0.7,0.5,1.2,0.5s1-0.2,1.3-0.5c0.4-0.4,0.6-0.9,0.7-1.6
				C148.7,46.7,148.2,45.8,147.1,45.8z"/>
			<path class="st4" d="M157.9,47.5c0,0.3,0,0.8,0,1.5s0,1.2,0,1.5c0,0.1,0,0.3,0,0.5s0,0.4,0,0.5c0,0.2-0.1,0.4-0.2,0.5
				c-0.1,0.1-0.3,0.2-0.5,0.2c-0.4,0-0.6-0.2-0.7-0.7c-0.6,0.3-1.3,0.5-2.1,0.5c-0.6,0-1.2-0.1-1.6-0.4c-0.5-0.3-0.8-0.7-0.8-1.3
				c-0.2-1.2-0.3-2.3-0.3-3.3c0-0.6,0.1-1.4,0.2-2.2c0.1-0.4,0.3-0.6,0.7-0.6c0.2,0,0.4,0.1,0.5,0.2s0.2,0.3,0.2,0.5s0,0.6-0.1,1
				c-0.1,0.5-0.1,0.8-0.1,1.1c0,0.8,0,1.4,0.1,2c0.1,0.5,0.1,1,0.2,1.3c0.2,0.1,0.3,0.1,0.5,0.2c0.2,0,0.3,0.1,0.5,0.1
				c0.7,0,1.4-0.1,2.1-0.3v-1.4v-1.3c0-1,0-1.9,0.1-2.6c0.1-0.4,0.3-0.6,0.7-0.6c0.2,0,0.4,0.1,0.5,0.2c0.1,0.1,0.2,0.3,0.2,0.5
				L157.9,47.5z"/>
			<path class="st4" d="M165.4,52c-0.4,0-0.7-0.2-0.7-0.7l-0.2-1.5c-0.1-0.5-0.1-1-0.1-1.5c0-0.1,0-0.3,0-0.7c0-0.3,0-0.5,0-0.7
				c0-1-0.2-1.5-0.6-1.5c-0.6,0-1.1,0.3-1.6,0.9c-0.5,0.6-0.8,1.3-1.1,2.1c0,0.2,0,0.4-0.1,0.7c0,0.2,0,0.5,0,0.7c0,0.1,0,0.3,0,0.6
				s0,0.5,0,0.6c0,0.2-0.1,0.4-0.2,0.5c-0.1,0.1-0.3,0.2-0.5,0.2s-0.4-0.1-0.5-0.2c-0.1-0.1-0.2-0.3-0.2-0.5c0-0.1,0-0.3,0-0.6
				s0-0.5,0-0.6c0-0.5,0-1.1,0.1-2s0.1-1.5,0.1-2c0-0.1,0-0.4,0-0.7s0-0.5,0-0.7s0.1-0.4,0.2-0.5s0.3-0.2,0.5-0.2
				c0.5,0,0.7,0.3,0.8,0.9v0.8c0.8-1,1.7-1.6,2.6-1.6c0.8,0,1.3,0.3,1.7,1c0.2,0.4,0.3,1.1,0.3,1.9v0.7V48c0,0.4,0.1,0.9,0.2,1.5
				s0.2,1.1,0.2,1.5c0,0.2-0.1,0.4-0.2,0.5C165.8,52,165.7,52,165.4,52z"/>
			<path class="st4" d="M174.6,45.4c-0.1,0.7-0.1,1.4-0.1,2c0,1.5,0.1,2.7,0.2,3.5c0,0.1,0,0.1,0,0.2c0,0.2-0.1,0.3-0.2,0.5
				c-0.1,0.1-0.3,0.2-0.5,0.2c-0.3,0-0.5-0.2-0.7-0.6c-0.4,0.2-0.7,0.4-1.1,0.6c-0.4,0.1-0.8,0.2-1.2,0.2c-1,0-1.9-0.3-2.5-1
				c-0.7-0.7-1-1.5-1-2.5c0-1.2,0.4-2.2,1.1-3c0.7-0.7,1.6-1.1,2.7-1.1c0.6,0,1,0.1,1.3,0.2l0.7,0.5c0.1-1.9,0.2-3.3,0.2-3.9
				c0.1-0.4,0.3-0.6,0.7-0.6c0.5,0,0.7,0.2,0.7,0.7C174.9,41.8,174.8,43.2,174.6,45.4z M171.3,45.6c-0.8,0-1.5,0.2-1.9,0.7
				s-0.6,1.2-0.6,2.1c0,0.6,0.2,1.1,0.7,1.5s1,0.6,1.6,0.6c0.4,0,0.8-0.1,1.1-0.2c0.2-0.1,0.4-0.3,0.8-0.6c0.1-0.1,0.1-0.1,0.2-0.2
				v-1.2v-0.8v-0.8c-0.2-0.4-0.4-0.7-0.8-0.8C172.1,45.7,171.7,45.6,171.3,45.6z"/>
			<path class="st4" d="M186.9,49.4l-0.3,2.7c-0.1,1-0.2,1.9-0.2,2.7c0,0.2-0.1,0.4-0.2,0.5c-0.1,0.1-0.3,0.2-0.5,0.2
				c-0.5,0-0.7-0.2-0.7-0.7c0-0.2,0-0.5,0-0.8l0.1-0.8l0.1-1.5c-0.4,0.1-0.7,0.2-0.9,0.2c-1.1,0-2-0.3-2.6-0.8
				c-0.7-0.6-1.1-1.3-1.1-2.3c0-1.4,0.4-2.4,1.2-3.3c0.8-0.8,2-1.3,3.4-1.2c0.3,0,0.5,0.1,0.6,0.3c0.2-0.2,0.4-0.3,0.6-0.3
				c0.2,0,0.4,0.1,0.5,0.2c0.1,0.1,0.2,0.3,0.2,0.5C187.2,46.3,187.1,47.8,186.9,49.4z M184.7,45.4c-0.9,0.2-1.6,0.6-2.1,1.3
				c-0.4,0.6-0.6,1.3-0.6,2c0,0.5,0.2,1,0.5,1.3c0.4,0.4,0.9,0.6,1.6,0.5c0.5,0,0.8-0.3,1-0.7c0.2-0.5,0.4-1.4,0.4-2.6l0.1-1.8
				c-0.1,0-0.3,0-0.5,0C185,45.4,184.8,45.4,184.7,45.4z"/>
			<path class="st4" d="M195.2,47.5c0,0.3,0,0.8,0,1.5s0,1.2,0,1.5c0,0.1,0,0.3,0,0.5s0,0.4,0,0.5c0,0.2-0.1,0.4-0.2,0.5
				c-0.1,0.1-0.3,0.2-0.5,0.2c-0.4,0-0.6-0.2-0.7-0.7c-0.6,0.3-1.3,0.5-2.1,0.5c-0.6,0-1.2-0.1-1.6-0.4c-0.5-0.3-0.8-0.7-0.8-1.3
				c-0.2-1.2-0.3-2.3-0.3-3.3c0-0.6,0.1-1.4,0.2-2.2c0.1-0.4,0.3-0.6,0.7-0.6c0.2,0,0.4,0.1,0.5,0.2s0.2,0.3,0.2,0.5s0,0.6-0.1,1
				c-0.1,0.5-0.1,0.8-0.1,1.1c0,0.8,0,1.4,0.1,2c0.1,0.5,0.1,1,0.2,1.3c0.2,0.1,0.3,0.1,0.5,0.2c0.2,0,0.3,0.1,0.5,0.1
				c0.7,0,1.4-0.1,2.1-0.3v-1.4v-1.3c0-1,0-1.9,0.1-2.6c0.1-0.4,0.3-0.6,0.7-0.6c0.2,0,0.4,0.1,0.5,0.2c0.1,0.1,0.2,0.3,0.2,0.5
				L195.2,47.5z"/>
			<path class="st4" d="M202.8,52c-0.1,0-0.3-0.1-0.5-0.3s-0.4-0.4-0.5-0.5c-0.5,0.2-0.9,0.4-1.3,0.5c-0.4,0.1-0.7,0.2-0.9,0.2
				c-1.2,0-2-0.3-2.5-0.9c-0.5-0.6-0.8-1.5-0.8-2.6s0.4-2.1,1.2-2.9c0.8-0.8,1.8-1.2,3-1.2c0.4,0,0.9,0.1,1.4,0.3
				c0.7,0.3,1,0.6,1,0.9c0,0.1,0,0.2-0.1,0.3c0,0.2-0.1,0.5-0.1,0.9s0,0.9,0,1.5s0,1,0.1,1.4c0,0.2,0.2,0.6,0.5,1.2
				c0,0.1,0.1,0.2,0.2,0.4v0.1c0,0.2-0.1,0.3-0.2,0.5S203,52,202.8,52z M201.3,47.2c0-0.2,0-0.4,0-0.6c0-0.2,0.1-0.5,0.1-0.7
				c-0.2-0.1-0.3-0.2-0.5-0.2c-0.1,0-0.2-0.1-0.3-0.1c-0.8,0-1.4,0.3-2,0.9c-0.6,0.6-0.8,1.3-0.8,2c0,0.8,0.1,1.3,0.4,1.7
				c0.3,0.4,0.7,0.6,1.3,0.6c0.5,0,0.9-0.1,1.2-0.2c0.2-0.1,0.4-0.3,0.8-0.5C201.4,48.7,201.3,47.8,201.3,47.2z"/>
			<path class="st4" d="M206.7,46.1l-0.1,3.4c0,0.4,0,0.9-0.1,1.6c0,0.5-0.3,0.7-0.7,0.7c-0.5,0-0.7-0.2-0.7-0.7
				c0-0.6,0-1.4,0.1-2.5s0.1-2,0.1-2.5c0-0.7,0-1.6,0-2.5s0-1.8,0-2.5c0-0.5,0.2-0.7,0.7-0.7s0.7,0.2,0.7,0.7c0,0.7,0,1.6,0,2.5
				S206.7,45.4,206.7,46.1z"/>
			<path class="st4" d="M210.7,48.4c0,0.3,0,0.7,0,1.2c0,0.6,0,1,0,1.2s-0.1,0.4-0.2,0.5c-0.1,0.1-0.3,0.2-0.5,0.2s-0.4-0.1-0.5-0.2
				c-0.1-0.1-0.2-0.3-0.2-0.5c0-0.3,0-0.7,0-1.2s0-1,0-1.2c0-0.4,0-1,0.1-1.6c0-0.6,0.1-1.2,0.1-1.6c0-0.2,0.1-0.4,0.2-0.5
				c0.1-0.1,0.3-0.2,0.5-0.2s0.4,0.1,0.5,0.2c0.1,0.1,0.2,0.3,0.2,0.5c0,0.4,0,1-0.1,1.6C210.8,47.4,210.7,48,210.7,48.4z
				 M210.4,42.8c-0.2,0-0.4-0.1-0.6-0.2c-0.2-0.2-0.3-0.3-0.3-0.6s0.1-0.4,0.3-0.6c0.2-0.2,0.4-0.2,0.6-0.2c0.2,0,0.4,0.1,0.6,0.2
				s0.3,0.3,0.3,0.6s-0.1,0.4-0.3,0.6C210.8,42.7,210.6,42.8,210.4,42.8z"/>
			<path class="st4" d="M218.2,45.6c-0.1,0-0.2,0-0.4,0c-0.1,0-0.3,0-0.4,0c-0.1,0-0.5,0-1,0.1l0.1,4.1v0.3v0.4c0,1-0.2,1.5-0.8,1.5
				c-0.2,0-0.4-0.1-0.5-0.2c-0.1-0.1-0.2-0.3-0.2-0.5s0-0.4,0-0.8c0-0.4,0-0.6,0-0.8l-0.1-4c-0.4,0-0.9-0.1-1.6-0.1
				c-0.4-0.1-0.7-0.3-0.7-0.7c0-0.2,0.1-0.4,0.2-0.5s0.3-0.2,0.5-0.2l1.6,0.1c0-0.2,0-0.6,0-0.9c0-0.4,0-0.7,0-0.9s0.1-0.4,0.2-0.5
				c0.1-0.1,0.3-0.2,0.5-0.2c0.4,0,0.7,0.3,0.8,1c0,0.2,0,0.4,0,0.6v0.4v0.4c0.6-0.1,1-0.1,1.1-0.1c0.5,0,0.9,0,1,0.1
				c0.3,0.1,0.5,0.3,0.5,0.7c0,0.2-0.1,0.4-0.2,0.5C218.6,45.6,218.4,45.6,218.2,45.6z"/>
			<path class="st4" d="M226.9,45.4l-2.6,5.2c-0.6,1.3-1.1,2.3-1.5,3.2l-0.5,1.3c-0.1,0.3-0.4,0.5-0.7,0.5c-0.2,0-0.4-0.1-0.5-0.2
				c-0.2-0.1-0.2-0.3-0.2-0.5c0-0.5,0.5-1.8,1.6-4l-2.7-4.8l-0.3-0.5c-0.1-0.2-0.2-0.4-0.2-0.5c0-0.2,0.1-0.4,0.2-0.5
				c0.2-0.1,0.3-0.2,0.5-0.2s0.4,0.1,0.5,0.2c0.8,1.1,1.7,2.6,2.7,4.7l1.1-2.4c0.4-0.8,0.8-1.5,1.1-2.1c0.2-0.3,0.4-0.4,0.6-0.4
				c0.2,0,0.4,0.1,0.5,0.2s0.2,0.3,0.2,0.5C227,45.1,227,45.2,226.9,45.4z"/>
		</g>
		<g>
			<path class="st3" d="M248.3,43.1c4.8,0,8.8,3.9,8.8,8.8c0,4.8-3.9,8.8-8.8,8.8c-4.8,0-8.8-3.9-8.8-8.8l0,0
				C239.6,47,243.5,43.1,248.3,43.1L248.3,43.1z"/>
		</g>
		<path class="st4" d="M248.3,48.4c1.9,0,3.5,1.6,3.5,3.5s-1.6,3.5-3.5,3.5s-3.5-1.6-3.5-3.5l0,0C244.8,49.9,246.4,48.4,248.3,48.4
			L248.3,48.4L248.3,48.4z"/>
		<path class="st6" d="M263.6,48.8c0-0.1-0.1-0.3-0.1-0.4v-12c0-0.9-0.7-1.6-1.6-1.6c-0.1,0-0.2,0-0.3,0l-8.3,1.7
			c-0.8,0.2-1.3,0.8-1.3,1.6V44c-1.2-0.6-2.6-0.2-3.3,1c-0.6,1.2-0.2,2.6,1,3.3s2.6,0.2,3.3-1c0.3-0.6,0.4-1.2,0.2-1.8V41l9.2-1.9
			V47c-1.2-0.6-2.6-0.2-3.3,1c-0.6,1.2-0.2,2.6,1,3.3s2.6,0.2,3.3-1c0.2-0.3,0.3-0.7,0.3-1.1C263.6,49,263.6,48.9,263.6,48.8
			L263.6,48.8z"/>
		<path class="st3" d="M119.1,46c1.3,0,2.4,1.1,2.4,2.4s-1.1,2.4-2.4,2.4s-2.4-1.1-2.4-2.4C116.7,47,117.7,46,119.1,46z"/>
		<path class="st6" d="M146.7,46.1c1.3,0,2.3,1,2.3,2.3s-1,2.3-2.3,2.3s-2.3-1-2.3-2.3S145.5,46.1,146.7,46.1z"/>
		<path class="st2" d="M184.1,45.7c1.1,0,2,1.1,2,2.4c0,1.3-0.9,2.4-2,2.4s-2-1.1-2-2.4C182.2,46.8,183.1,45.7,184.1,45.7z"/>
		<path class="st4" d="M104.8,19.7c1.8-2.5,4.6-3.5,6.3-2.3c1.7,1.2,1.6,4.2-0.1,6.7s-4.6,3.5-6.3,2.3
			C102.9,25.2,103,22.2,104.8,19.7z"/>
		<path class="st4" d="M172.2,0.3c3.7,0,6.8,3,6.8,6.8c0,3.7-3,6.8-6.8,6.8c-3.7,0-6.8-3-6.8-6.8S168.5,0.3,172.2,0.3z"/>
		<path class="st0" d="M266.5,2.2c1.8,1.8,1.7,4.7-0.2,6.5s-4.7,1.9-6.5,0.1s-1.7-4.7,0.2-6.5C261.9,0.5,264.8,0.5,266.5,2.2z"/>
		<path class="st0" d="M78.4,53.4c3.1,1.2,4.9,4.2,3.9,6.7s-4.3,3.5-7.4,2.3S70,58.2,71,55.7S75.3,52.1,78.4,53.4z"/>
		<path class="st3" d="M94.3,3.2c1,0.7,1,2.4,0,3.7S91.8,8.8,90.8,8c-1-0.7-1-2.4,0-3.7C91.7,3,93.3,2.5,94.3,3.2z"/>
		<path class="st9" d="M176.6,34.5c0.1-0.1,0.1-0.2,0.1-0.3l5.5-8c0.4-0.6,0.2-1.5-0.5-2c-0.1-0.1-0.2-0.1-0.3-0.2l-7.4-3.4
			c-0.7-0.3-1.4-0.2-1.8,0.3l-2.7,3.9c-0.6-1.1-2-1.6-3-1.1c-1,0.4-1.4,1.6-0.7,2.7c0.6,1.1,2,1.6,3,1.1c0.5-0.2,0.9-0.6,1-1.1
			l2-2.9l8.2,3.8l-3.6,5.2c-0.7-1.1-2-1.6-3.1-1.1s-1.3,1.7-0.7,2.7c0.7,1.1,2,1.6,3.1,1.1c0.3-0.1,0.6-0.3,0.7-0.6
			C176.5,34.7,176.6,34.6,176.6,34.5L176.6,34.5z"/>
	</g>
	<path class="st8" d="M165.8,58.5c0.7,1.3-0.4,3.2-2.4,4.3c-2,1.1-4.2,0.8-4.9-0.5c-0.7-1.3,0.4-3.2,2.4-4.3
		C162.9,56.9,165.1,57.1,165.8,58.5L165.8,58.5z"/>
</g>
</svg>
