<svg width="194" height="220" viewBox="0 0 194 220" fill="none" xmlns="http://www.w3.org/2000/svg">
<path d="M107.472 26.3342H94.6887C89.5133 26.3342 85.3183 30.2549 85.3183 35.1006C85.3183 39.9376 89.5133 43.8582 94.6887 43.8582H107.472H119.67C124.846 43.8582 129.041 47.7789 129.041 52.6247C129.041 57.4616 124.846 61.3823 119.67 61.3823H74.7977H38.7866C33.6112 61.3823 29.4161 65.3029 29.4161 70.1487C29.4161 74.9944 33.6112 78.9151 38.7866 78.9151H74.7977H101.09C106.265 78.9151 110.47 82.8358 110.47 87.6727C110.47 92.5096 106.275 96.4391 101.09 96.4391H74.7977H56.1323C50.9568 96.4391 46.7524 100.36 46.7524 105.206C46.7524 110.042 50.9474 113.963 56.1323 113.963H74.7977H83.4612C88.6366 113.963 92.841 117.884 92.841 122.73C92.841 127.566 88.646 131.487 83.4612 131.487H74.7977H38.7866C33.6112 131.487 29.4161 135.408 29.4161 140.254C29.4161 145.091 33.6112 149.02 38.7866 149.02H74.7977H69.5375C74.7129 149.02 78.9173 152.941 78.9173 157.778C78.9173 162.615 74.7223 166.544 69.5375 166.544H74.7977H57.6877C52.5123 166.544 48.3173 170.465 48.3173 175.31C48.3173 180.147 52.5123 184.068 57.6877 184.068H74.7977H139.618L150.638 166.544V149.002V131.478V113.954V96.4303V78.9151L166.108 61.3911L164.722 43.8671L166.108 26.343H107.472V26.3342Z" fill="#CCCCCC"/>
<path d="M9.35159 113.91H20.7865C25.9525 113.91 30.1381 109.998 30.1381 105.17C30.1381 100.342 25.9525 96.4302 20.7865 96.4302H9.35159C4.18559 96.4302 0 100.342 0 105.17C0 109.998 4.18559 113.91 9.35159 113.91Z" fill="#CCCCCC"/>
<path d="M51.6916 43.8142H57.4043C62.5703 43.8142 66.7559 39.9024 66.7559 35.0742C66.7559 30.2461 62.5703 26.3342 57.4043 26.3342H51.6916C46.5256 26.3342 42.34 30.2461 42.34 35.0742C42.34 39.9024 46.5256 43.8142 51.6916 43.8142Z" fill="#CCCCCC"/>
<path d="M190.981 77.5849C190.858 77.1356 190.726 76.6863 190.575 76.2546C190.415 75.7964 190.227 75.3471 190.019 74.9066C189.821 74.4749 189.595 74.0519 189.35 73.6467C189.114 73.2414 188.85 72.8537 188.577 72.4837C188.304 72.1136 188.011 71.7524 187.7 71.4176C187.399 71.0828 187.069 70.7568 186.729 70.4573C186.39 70.1577 186.041 69.8758 185.673 69.6203C185.306 69.356 184.929 69.1181 184.533 68.9066C184.335 68.8009 184.137 68.6952 183.929 68.5983C183.675 68.4749 183.411 68.4044 183.147 68.3163C182.968 68.2547 182.789 68.193 182.619 68.1313C182.129 67.9375 181.648 67.7172 181.186 67.4617C180.734 67.2062 180.3 66.9243 179.885 66.6159C179.47 66.3075 179.084 65.9728 178.716 65.6027C178.349 65.2415 178.009 64.8538 177.689 64.4397C177.378 64.0256 177.085 63.5939 176.821 63.1446C175.596 61.0125 174.964 58.4134 175.096 55.5676C175.219 53.083 176.001 50.5985 176.557 48.1227C177.142 45.4972 177.199 43.0039 177.255 40.4224C177.302 38.2726 177.349 36.1317 177.406 33.982C177.462 31.4974 177.528 29.0217 177.594 26.5371L177.717 22.0526L178.575 3.32153H162.803L157.213 22.0526L155.79 26.5371C154.998 29.0217 154.206 31.4974 153.414 33.982C152.726 36.1317 152.038 38.2726 151.35 40.4224C150.52 43.0039 149.709 45.4972 149.398 48.1227C149.097 50.5985 149.031 53.0742 148.295 55.5676C147.456 58.4046 145.929 61.0037 143.968 63.1446C143.554 63.5939 143.11 64.0345 142.658 64.4397C142.196 64.8538 141.725 65.2415 141.235 65.6027C140.744 65.9639 140.235 66.3075 139.717 66.6159C139.198 66.9243 138.661 67.2062 138.124 67.4617C137.577 67.7172 137.021 67.9375 136.464 68.1313C136.266 68.2018 136.069 68.2635 135.871 68.3163C135.578 68.4044 135.286 68.4749 134.994 68.5983C134.758 68.6952 134.522 68.8009 134.287 68.9066C133.815 69.1269 133.354 69.3648 132.901 69.6203C132.449 69.8846 131.996 70.1577 131.553 70.4573C131.11 70.7568 130.676 71.074 130.252 71.4176C129.828 71.7524 129.413 72.1136 129.017 72.4837C128.612 72.8537 128.225 73.2502 127.848 73.6467C127.471 74.0519 127.103 74.4749 126.755 74.9066C126.425 75.3118 126.114 75.7259 125.812 76.1576C136.455 78.0695 147.777 79.2589 159.542 79.6995C171.033 80.1488 182.421 79.3559 190.981 77.5849Z" fill="#336699"/>
<path d="M165.706 89.5845C172.475 89.5845 181.911 89.2057 190.895 87.5846C191.15 86.122 191.282 85.3203 191.282 85.3203C191.357 84.8709 191.414 84.4304 191.461 83.9811C191.517 83.426 191.546 82.8798 191.555 82.3335C191.564 81.7961 191.546 81.2587 191.508 80.73C191.47 80.2102 191.404 79.6904 191.329 79.1794C191.244 78.6772 191.14 78.175 191.018 77.6904C191.008 77.6552 190.999 77.6288 190.989 77.5935C182.43 79.3644 171.042 80.1486 159.532 79.7168C147.767 79.2675 136.454 78.0781 125.802 76.175C125.783 76.2103 125.755 76.2367 125.736 76.272C125.406 76.7389 125.104 77.2059 124.812 77.6904C124.52 78.175 124.246 78.6772 123.982 79.1794C123.728 79.6904 123.483 80.2102 123.266 80.73C123.04 81.2587 122.842 81.7961 122.663 82.3335C122.483 82.8798 122.323 83.4348 122.191 83.9811C122.078 84.4304 121.993 84.8709 121.908 85.3203C121.908 85.3203 121.899 85.3467 121.899 85.3996C133.617 87.611 146.117 88.9766 159.107 89.47C160.757 89.5229 163.02 89.5845 165.706 89.5845Z" fill="#FF6666"/>
<path d="M163.682 1.5063H171.016H178.351C178.341 1.51511 178.69 1.52392 178.681 1.53273L178.596 3.32126H179.868L180.161 1.53273C180.293 0.69574 179.821 0.017334 179.095 0.017334H163.305C162.579 0.017334 161.872 0.69574 161.712 1.53273L161.382 3.32126H162.824L163.362 1.53273C163.343 1.52392 163.692 1.51511 163.682 1.5063Z" fill="#FF6666"/>
<path d="M178.668 1.53278C178.677 1.52397 178.329 1.51516 178.338 1.50635H171.004H163.67C163.679 1.51516 163.33 1.52397 163.34 1.53278L162.802 3.32129H178.574L178.668 1.53278Z" fill="#FF6666"/>
<path d="M176.115 195.796C174.937 200.545 172.693 203.32 170.393 204.941C176.36 208.466 179.311 213.232 180.706 216.404C181.045 217.188 182.28 217.021 182.375 216.184C183.449 205.946 180.385 199.664 176.115 195.796Z" fill="#FF6666"/>
<path d="M176.114 195.796C168.997 189.347 158.571 189.646 158.571 189.646L156.553 200.598C162.398 201.25 166.913 202.888 170.392 204.95C174.059 204.518 178.047 199.576 176.114 195.796Z" fill="#FF6666"/>
<path d="M99.878 203.575C94.7308 209.276 87.802 207.778 84.0123 206.298C83.343 206.034 82.7491 206.8 83.2205 207.32C93.4393 218.571 101.942 215.346 107.674 209.849C104.28 208.633 101.584 206.43 99.878 203.575Z" fill="#FF6666"/>
<path d="M115.638 198.367L104.099 195.698C103.232 198.429 102.148 200.579 100.941 202.253C100.592 202.728 100.244 203.169 99.876 203.574C100.658 206.394 102.695 209.636 107.672 209.847C108.709 208.852 109.652 207.786 110.5 206.72C113.809 202.552 115.638 198.367 115.638 198.367Z" fill="#FF6666"/>
<path d="M82.451 213.646C85.1482 211.37 86.1892 208.34 84.7763 206.877C83.3633 205.414 80.0314 206.074 77.3342 208.35C74.637 210.625 73.5959 213.656 75.0088 215.119C76.4218 216.581 79.7538 215.922 82.451 213.646Z" fill="#336699"/>
<path d="M188.284 215.176C190.981 212.9 192.022 209.87 190.609 208.407C189.196 206.944 185.864 207.604 183.167 209.88C180.47 212.156 179.428 215.186 180.841 216.649C182.254 218.111 185.586 217.452 188.284 215.176Z" fill="#336699"/>
<path d="M124.93 163.795L124.949 163.698H124.93L136.657 96.5266C144.284 97.7248 153.315 98.412 162.996 98.412C172.687 98.412 181.718 97.716 189.363 96.5178C190.033 92.5971 190.561 89.5135 190.9 87.5752C181.916 89.2051 172.489 89.5751 165.711 89.5751C163.034 89.5751 160.762 89.5135 159.112 89.4518C146.122 88.9584 133.622 87.5928 121.904 85.3813C121.357 88.5619 103.974 189.204 103.974 189.204C102.409 198.464 108.583 205.794 117.935 205.794H135.865H153.795C163.147 205.794 171.848 198.464 173.47 189.204C173.47 189.204 175.317 178.455 177.815 163.865C170.142 165.072 161.026 165.671 151.269 165.671C141.597 165.68 132.566 164.993 124.93 163.795Z" fill="#336699"/>
<path d="M162.994 98.4216C153.313 98.4216 144.291 97.7255 136.655 96.5361L124.928 163.707H124.947L124.928 163.804C132.554 165.002 141.586 165.689 151.267 165.689C161.024 165.689 170.14 165.09 177.813 163.883C181.499 142.377 186.618 112.536 189.362 96.5361C181.726 97.7255 172.685 98.4216 162.994 98.4216Z" fill="#FF6666"/>
<path d="M149.466 130.791C148.693 129.804 148.146 128.615 147.835 127.223C147.514 125.831 147.514 124.333 147.835 122.729C148.099 121.126 148.645 119.628 149.466 118.236C150.286 116.844 151.276 115.654 152.416 114.668C153.151 114.033 153.934 113.496 154.763 113.038C154.386 112.782 153.99 112.544 153.566 112.342C152.369 111.778 151.049 111.496 149.616 111.496C148.183 111.496 146.769 111.778 145.393 112.342C144.007 112.906 142.744 113.681 141.603 114.668C140.463 115.654 139.473 116.844 138.653 118.236C137.833 119.628 137.286 121.126 137.022 122.729C136.701 124.333 136.701 125.831 137.022 127.223C137.342 128.615 137.889 129.804 138.653 130.791C139.426 131.778 140.406 132.553 141.603 133.117C142.801 133.681 144.111 133.963 145.553 133.963C146.986 133.963 148.4 133.681 149.777 133.117C150.276 132.914 150.748 132.676 151.219 132.421C150.55 131.963 149.956 131.425 149.466 130.791Z" fill="white"/>
<path d="M156.519 127.223C157.34 125.831 157.915 124.333 158.235 122.73C158.499 121.126 158.471 119.628 158.16 118.236C157.839 116.844 157.292 115.655 156.529 114.668C156.039 114.034 155.445 113.496 154.775 113.038C153.946 113.496 153.163 114.034 152.428 114.668C151.287 115.655 150.298 116.844 149.477 118.236C148.657 119.628 148.111 121.126 147.847 122.73C147.526 124.333 147.526 125.831 147.847 127.223C148.167 128.615 148.714 129.804 149.477 130.791C149.968 131.426 150.562 131.963 151.231 132.421C152.06 131.963 152.843 131.426 153.578 130.791C154.709 129.804 155.69 128.615 156.519 127.223Z" fill="#336699"/>
<path d="M171.063 130.791C170.29 129.804 169.743 128.615 169.432 127.223C169.112 125.831 169.112 124.333 169.432 122.729C169.696 121.126 170.243 119.628 171.063 118.236C171.883 116.844 172.873 115.654 174.014 114.668C174.749 114.033 175.531 113.496 176.361 113.038C175.984 112.782 175.588 112.544 175.164 112.342C173.967 111.778 172.647 111.496 171.214 111.496C169.781 111.496 168.367 111.778 166.991 112.342C165.605 112.906 164.342 113.681 163.201 114.668C162.06 115.654 161.07 116.844 160.25 118.236C159.43 119.628 158.883 121.126 158.619 122.729C158.299 124.333 158.299 125.831 158.619 127.223C158.94 128.615 159.487 129.804 160.25 130.791C161.023 131.778 162.004 132.553 163.201 133.117C164.398 133.681 165.709 133.963 167.151 133.963C168.584 133.963 169.998 133.681 171.374 133.117C171.874 132.914 172.345 132.676 172.816 132.421C172.147 131.963 171.553 131.425 171.063 130.791Z" fill="white"/>
<path d="M178.115 127.223C178.936 125.831 179.511 124.333 179.831 122.73C180.095 121.126 180.067 119.628 179.756 118.236C179.435 116.844 178.888 115.655 178.125 114.668C177.635 114.034 177.041 113.496 176.371 113.038C175.542 113.496 174.759 114.034 174.024 114.668C172.883 115.655 171.894 116.844 171.073 118.236C170.253 119.628 169.707 121.126 169.443 122.73C169.122 124.333 169.122 125.831 169.443 127.223C169.763 128.615 170.31 129.804 171.073 130.791C171.564 131.426 172.158 131.963 172.827 132.421C173.656 131.963 174.439 131.426 175.174 130.791C176.305 129.804 177.286 128.615 178.115 127.223Z" fill="#336699"/>
<path d="M148.308 143.055C148.506 143.777 148.873 144.464 149.411 145.116C149.948 145.768 150.665 146.315 151.56 146.755C152.446 147.187 153.606 147.407 155.039 147.407C156.424 147.407 157.65 147.187 158.715 146.755C159.78 146.315 160.685 145.777 161.449 145.116C162.213 144.464 162.825 143.777 163.306 143.055C163.787 142.332 164.126 141.716 164.343 141.187H147.95C147.987 141.716 148.11 142.332 148.308 143.055Z" fill="white"/>
<path d="M163.087 20.5015L162.512 22.4398L161.088 26.9243C160.296 29.4089 159.505 31.8846 158.713 34.3691C158.025 36.5189 157.336 38.6598 156.648 40.8096C155.819 43.3911 155.008 45.8844 154.697 48.51C154.395 50.9857 154.329 53.4614 153.594 55.9548" stroke="white" stroke-width="3" stroke-miterlimit="10" stroke-linecap="round" stroke-linejoin="round"/>
<path d="M130.15 80.4307C129.858 80.9152 129.584 81.4174 129.32 81.9196C129.066 82.4306 128.821 82.9505 128.604 83.4703C128.378 83.9989 128.18 84.5363 128.001 85.0738C127.822 85.62 127.661 86.1751 127.529 86.7213C127.416 87.1707 127.331 87.6112 127.247 88.0605C127.247 88.0605 121.864 119.214 116.999 147.399" stroke="white" stroke-width="3" stroke-miterlimit="10" stroke-linecap="round" stroke-linejoin="round"/>
<path d="M138.248 72.3691C137.796 72.6335 137.343 72.9066 136.9 73.2061C136.457 73.5057 136.023 73.8229 135.599 74.1665C135.175 74.5013 134.76 74.8625 134.364 75.2325" stroke="white" stroke-width="3" stroke-miterlimit="10" stroke-linecap="round" stroke-linejoin="round"/>
<path d="M110.411 184.5C109.883 187.592 108.827 190.694 109.949 193.777C111.646 198.421 115.973 199.592 120.621 199.786" stroke="white" stroke-width="3" stroke-miterlimit="10" stroke-linecap="round" stroke-linejoin="round"/>
</svg>
