<?xml version="1.0" encoding="utf-8"?>
<!-- Generator: Adobe Illustrator 23.0.1, SVG Export Plug-In . SVG Version: 6.00 Build 0)  -->
<svg version="1.1" id="Layer_1" xmlns="http://www.w3.org/2000/svg" xmlns:xlink="http://www.w3.org/1999/xlink" x="0px" y="0px"
	 viewBox="0 0 20 20" style="enable-background:new 0 0 20 20;" xml:space="preserve">
<style type="text/css">
	.st0{fill:#0D7F7C;}
	.st1{fill:#1E9B83;}
	.st2{fill:#009986;}
	.st3{fill:#FFF5F5;}
	.st4{fill:#E1EBF0;}
</style>
<circle class="st0" cx="9.9" cy="6.5" r="5.9"/>
<path class="st0" d="M9.9,0.6v11.8c3.3,0,5.9-2.7,5.9-5.9S13.1,0.6,9.9,0.6L9.9,0.6z"/>
<path class="st1" d="M16.4,6.5c0-3.6-2.9-6.5-6.5-6.5C6.3,0,3.4,2.9,3.4,6.5c0,3,2,5.5,4.7,6.3V15H6l3.9,5l3.9-5h-2.1v-2.3
	C14.4,12,16.4,9.5,16.4,6.5L16.4,6.5z M4.5,6.5c0-2.9,2.4-5.3,5.3-5.3c2.9,0,5.3,2.4,5.3,5.3c0,2.9-2.4,5.3-5.3,5.3
	C6.9,11.8,4.5,9.5,4.5,6.5L4.5,6.5z"/>
<path class="st2" d="M16.4,6.5c0-3.6-2.9-6.5-6.5-6.5v1.2c2.9,0,5.3,2.4,5.3,5.3c0,2.9-2.4,5.3-5.3,5.3V20l3.9-5h-2.1v-2.3
	C14.4,12,16.4,9.5,16.4,6.5L16.4,6.5z"/>
<path class="st3" d="M10.6,5.9H9.4c-0.3,0-0.5-0.2-0.5-0.5s0.2-0.5,0.5-0.5h2.1V3.7h-1V3H9.3v0.8C8.4,3.8,7.7,4.5,7.7,5.4
	c0,0.9,0.7,1.7,1.7,1.7h1.2c0.3,0,0.5,0.2,0.5,0.5c0,0.3-0.2,0.5-0.5,0.5H8v1.2h1.3V10h1.2V9.3h0.2c0.9,0,1.7-0.8,1.7-1.7
	S11.6,5.9,10.6,5.9L10.6,5.9z"/>
<g>
	<path class="st4" d="M11.5,4.9V3.7h-1V3H9.9v1.9H11.5z"/>
	<path class="st4" d="M10.4,9.3h0.2c0.9,0,1.7-0.8,1.7-1.7c0-0.9-0.8-1.7-1.7-1.7H9.9v1.2h0.8c0.3,0,0.5,0.2,0.5,0.5
		c0,0.3-0.2,0.5-0.5,0.5H9.9V10h0.6L10.4,9.3L10.4,9.3z"/>
</g>
</svg>
