<?xml version="1.0" encoding="utf-8"?>
<!-- Generator: Adobe Illustrator 23.0.1, SVG Export Plug-In . SVG Version: 6.00 Build 0)  -->
<svg version="1.1" id="Layer_1" xmlns="http://www.w3.org/2000/svg" xmlns:xlink="http://www.w3.org/1999/xlink" x="0px" y="0px"
	 viewBox="0 0 30 30" style="enable-background:new 0 0 30 30;" xml:space="preserve">
<style type="text/css">
	.st0{fill:#35738E;}
</style>
<g>
	<g>
		<g>
			<path class="st0" d="M26.7,26.1l-3.1-4c1-0.3,1.9-1,2.5-1.8c0.7-1.3,0.4-2.8,0.1-4.4c-0.2-0.8-0.3-1.6-0.4-2.4
				c0-0.8,0.2-1.6,0.4-2.4c0.3-1.5,0.7-3.1-0.1-4.4c-0.8-1.3-2.3-1.8-3.8-2.3c-0.7-0.2-1.5-0.5-2.2-0.8c-0.6-0.4-1.2-0.9-1.7-1.4
				c-1.1-1-2.4-2.2-4-2.2s-2.9,1.2-4,2.2c-0.5,0.5-1.1,1-1.7,1.4C8,3.9,7.3,4.2,6.6,4.4c-1.5,0.5-3,1-3.8,2.3C2,8,2.4,9.6,2.7,11.1
				C2.9,11.9,3,12.6,3,13.4c0,0.8-0.2,1.6-0.4,2.4c-0.3,1.5-0.7,3.1,0.1,4.4c0.6,0.9,1.5,1.5,2.5,1.8l-3.2,4
				c-0.2,0.2-0.1,0.6,0.1,0.7c0.1,0.1,0.2,0.1,0.4,0.1l3.7-0.5l0.9,3.2C7.2,29.8,7.4,30,7.6,30c0,0,0.1,0,0.1,0
				c0.2,0,0.3-0.1,0.4-0.2l3.3-4.2c0.8,0.8,1.9,1.3,3,1.3c1.1-0.1,2.2-0.6,3-1.3l3.3,4.2c0.1,0.1,0.2,0.2,0.4,0.2c0,0,0.1,0,0.1,0
				c0.2,0,0.3-0.2,0.4-0.4l0.9-3.2l3.7,0.5c0.3,0,0.5-0.2,0.6-0.4C26.8,26.3,26.8,26.2,26.7,26.1z M7.9,28.4l-0.8-2.6
				c-0.1-0.2-0.3-0.4-0.6-0.4l-2.9,0.4l2.6-3.3l0.3,0.1C7.3,22.7,8,23,8.7,23.3c0.6,0.4,1.2,0.9,1.7,1.4l0.2,0.2L7.9,28.4z
				 M14.4,25.9c-1.2,0-2.2-0.9-3.3-1.9c-0.6-0.6-1.2-1.1-1.9-1.5c-0.7-0.4-1.5-0.7-2.4-0.9c-1.4-0.4-2.7-0.8-3.2-1.8
				c-0.5-0.9-0.3-2.2,0-3.6c0.2-0.8,0.3-1.7,0.4-2.6c0-0.9-0.2-1.7-0.4-2.6c-0.3-1.4-0.6-2.7,0-3.6c0.6-1,1.9-1.4,3.2-1.8
				c0.8-0.2,1.6-0.5,2.4-0.9c0.7-0.4,1.3-1,1.9-1.5C12.2,2,13.2,1,14.4,1S16.6,2,17.7,3c0.6,0.6,1.2,1.1,1.9,1.5
				c0.7,0.4,1.5,0.7,2.4,0.9c1.4,0.4,2.7,0.8,3.2,1.8c0.5,0.9,0.3,2.2,0,3.6c-0.2,0.8-0.3,1.7-0.4,2.6c0,0.9,0.2,1.7,0.4,2.6
				c0.3,1.4,0.6,2.7,0,3.6c-0.6,1-1.9,1.4-3.2,1.8c-0.8,0.2-1.6,0.5-2.4,0.9c-0.7,0.4-1.3,1-1.9,1.5C16.6,24.9,15.6,25.9,14.4,25.9z
				 M22.2,25.3c-0.3,0-0.5,0.1-0.6,0.4l-0.8,2.6l-2.7-3.5l0.2-0.2c0.5-0.5,1.1-1,1.7-1.4c0.7-0.4,1.4-0.6,2.1-0.8l0.3-0.1l2.6,3.3
				L22.2,25.3z"/>
		</g>
	</g>
	<g>
		<g>
			<path class="st0" d="M14.4,4.1c-5.1,0-9.3,4.2-9.3,9.3s4.2,9.3,9.3,9.3s9.3-4.2,9.3-9.3C23.7,8.3,19.5,4.1,14.4,4.1z M14.4,21.7
				c-4.6,0-8.3-3.7-8.3-8.3s3.7-8.3,8.3-8.3s8.3,3.7,8.3,8.3C22.7,18,19,21.7,14.4,21.7z"/>
		</g>
	</g>
	<g>
		<g>
			<path class="st0" d="M20.4,11.3c-0.2-0.3-0.5-0.4-0.8-0.4h-3.2l-1-3c-0.2-0.5-0.8-0.8-1.3-0.7c-0.3,0.1-0.6,0.3-0.7,0.7l-1,3H9.3
				c-0.6,0-1,0.5-1,1c0,0.3,0.2,0.6,0.4,0.8l2.6,1.9l-1,3c-0.2,0.5,0.1,1.1,0.7,1.3c0.3,0.1,0.7,0,0.9-0.1l2.6-1.9l2.6,1.9
				c0.4,0.3,0.9,0.3,1.2,0c0.4-0.3,0.5-0.7,0.4-1.2l-1-3l2.6-1.9C20.6,12.4,20.7,11.7,20.4,11.3z M16.7,14c-0.2,0.1-0.3,0.4-0.2,0.6
				l1.1,3.4l-2.9-2.1c-0.2-0.1-0.4-0.1-0.6,0l-2.9,2.1l1.1-3.4c0.1-0.2,0-0.4-0.2-0.6l-2.9-2.1h3.5c0.2,0,0.4-0.1,0.5-0.4l1.1-3.4
				l1.1,3.4c0.1,0.2,0.3,0.4,0.5,0.4l3.5,0L16.7,14z"/>
		</g>
	</g>
</g>
</svg>
