<?xml version="1.0" encoding="utf-8"?>
<!-- Generator: Adobe Illustrator 23.0.1, SVG Export Plug-In . SVG Version: 6.00 Build 0)  -->
<svg version="1.1" id="Layer_1" xmlns="http://www.w3.org/2000/svg" xmlns:xlink="http://www.w3.org/1999/xlink" x="0px" y="0px"
	 viewBox="0 0 20 20" style="enable-background:new 0 0 20 20;" xml:space="preserve">
<style type="text/css">
	.st0{fill:#59B348;}
	.st1{fill:#4D6AFF;}
	.st2{fill:#5990FF;}
	.st3{fill:#66B3FF;}
	.st4{fill:#FFBE40;}
	.st5{fill:#FF9F40;}
	.st6{fill:#A0E65C;}
	.st7{fill:#79CC52;}
</style>
<g>
	<path class="st0" d="M16.9,1.2c-0.3,0-0.6,0.3-0.6,0.6v6.7c0,0.3,0.3,0.6,0.6,0.6c0.3,0,0.6-0.3,0.6-0.6V2.4
		c0.7,0.2,1.2,0.9,1.2,1.6v1.1c0,0.3,0.3,0.6,0.6,0.6c0.3,0,0.6-0.3,0.6-0.6V4C19.8,2.4,18.5,1.2,16.9,1.2z"/>
	<path class="st1" d="M10.5,14.1c0,0.3,0.3,0.6,0.6,0.6c0.3,0,0.6-0.3,0.6-0.6V7.7L10.5,7V14.1z"/>
	<path class="st2" d="M3.5,16.3c0,0.3,0.3,0.6,0.6,0.6c0.3,0,0.6-0.3,0.6-0.6V8.9l-1.2,1.5V16.3z"/>
	<ellipse class="st3" cx="2.3" cy="16.3" rx="2.3" ry="1.7"/>
	<path class="st2" d="M9.4,12.4c-0.7,0-1.4,0.2-1.8,0.6C7.2,13.2,7,13.6,7,14.1s0.2,0.8,0.6,1.1c0.4,0.3,1.1,0.6,1.8,0.6
		c1.3,0,2.3-0.7,2.3-1.7S10.7,12.4,9.4,12.4z"/>
	<path class="st4" d="M5.2,3.4c-1,0-1.7-0.8-1.7-1.7c0-0.3-0.3-0.6-0.6-0.6S2.3,1.4,2.3,1.7c0,0.9-0.8,1.7-1.7,1.7
		C0.3,3.4,0,3.6,0,4s0.3,0.6,0.6,0.6c1,0,1.7,0.8,1.7,1.7c0,0.3,0.3,0.6,0.6,0.6s0.6-0.3,0.6-0.6c0-0.9,0.8-1.7,1.7-1.7
		c0.3,0,0.6-0.3,0.6-0.6S5.6,3.4,5.2,3.4z"/>
	<path class="st5" d="M19.3,14.6c-1,0-1.7-0.8-1.7-1.7c0-0.3-0.3-0.6-0.6-0.6c-0.3,0-0.6,0.3-0.6,0.6c0,0.9-0.8,1.7-1.7,1.7
		c-0.3,0-0.6,0.3-0.6,0.6c0,0.3,0.3,0.6,0.6,0.6c1,0,1.7,0.8,1.7,1.7c0,0.3,0.3,0.6,0.6,0.6c0.3,0,0.6-0.3,0.6-0.6
		c0-0.9,0.8-1.7,1.7-1.7c0.3,0,0.6-0.3,0.6-0.6C19.8,14.9,19.6,14.6,19.3,14.6z"/>
	<path class="st6" d="M15.2,6.8c-1.3,0-2.3,0.7-2.3,1.7s1,1.7,2.3,1.7c1.3,0,1.2-0.7,1.2-1.7S16.5,6.8,15.2,6.8z"/>
	<path class="st7" d="M17.5,8.5c0-0.9-1-1.7-2.3-1.7v3.4C16.5,10.1,17.5,9.4,17.5,8.5z"/>
	<path class="st3" d="M10.9,5.7L7.6,6.7L3.9,7.9C3.6,8,3.5,8.2,3.5,8.5v1.9L7.6,9l4.1-1.3V6.2C11.7,5.8,11.3,5.5,10.9,5.7L10.9,5.7z
		"/>
	<path class="st2" d="M11.7,6.2c0-0.4-0.4-0.7-0.8-0.5L7.6,6.7V9l4.1-1.3V6.2z"/>
</g>
</svg>
